<svg xmlns="http://www.w3.org/2000/svg" enable-background="new 0 0 3000 3000" viewBox="0 0 3000 3000" id="Transactionsummary"><g fill="#000000" class="color000000 svgShape"><path fill="#e9eff2" d="M2073.04 2053.57c-47.59 0-93.78-9.33-137.29-27.74-42-17.77-79.71-43.19-112.09-75.56-32.37-32.37-57.8-70.08-75.56-112.09-18.4-43.51-27.74-89.7-27.74-137.29s9.33-93.78 27.74-137.29c17.77-42 43.19-79.71 75.56-112.09 32.37-32.37 70.08-57.8 112.09-75.56 43.51-18.4 89.7-27.74 137.29-27.74 47.59 0 93.78 9.33 137.29 27.74 42 17.77 79.71 43.19 112.09 75.56 32.37 32.37 57.8 70.08 75.56 112.09 18.4 43.51 27.74 89.7 27.74 137.29s-9.33 93.78-27.74 137.29c-17.77 42-43.19 79.71-75.56 112.09-32.37 32.37-70.08 57.8-112.09 75.56-43.51 18.41-89.7 27.74-137.29 27.74zm0-605.35c-139.33 0-252.68 113.35-252.68 252.68s113.35 252.68 252.68 252.68 252.68-113.35 252.68-252.68-113.35-252.68-252.68-252.68zM847.08 1626.7c-51.61 0-101.7-10.12-148.89-30.08-45.55-19.27-86.45-46.84-121.55-81.94s-62.68-76-81.94-121.55c-19.96-47.18-30.08-97.28-30.08-148.89s10.12-101.7 30.08-148.89c19.27-45.55 46.84-86.45 81.94-121.55s76.01-62.68 121.55-81.94c47.18-19.96 97.28-30.08 148.89-30.08s101.7 10.12 148.89 30.08c45.55 19.27 86.45 46.84 121.55 81.94 35.11 35.11 62.68 76.01 81.94 121.55 19.96 47.18 30.08 97.28 30.08 148.89s-10.12 101.7-30.08 148.89c-19.27 45.55-46.84 86.45-81.94 121.55-35.11 35.11-76.01 62.68-121.55 81.94-47.18 19.96-97.28 30.08-148.89 30.08zm0-664.92c-155.75 0-282.46 126.71-282.46 282.46s126.71 282.46 282.46 282.46 282.46-126.71 282.46-282.46-126.71-282.46-282.46-282.46z" class="colore9e9f2 svgShape"></path><path fill="#d9e3e7" d="M2198.17 1133.95c-12.69-4.38-22.73-14.42-27.11-27.11a2.508 2.508 0 0 0-4.78 0c-4.39 12.69-14.44 22.73-27.14 27.11-2.33.8-2.33 3.98 0 4.78 12.7 4.39 22.75 14.44 27.14 27.14.8 2.33 3.98 2.33 4.78 0 4.38-12.7 14.42-22.75 27.11-27.14 2.33-.8 2.33-3.98 0-4.78zM2399.16 2330.37c-11.57-3.99-20.72-13.15-24.71-24.71a2.29 2.29 0 0 0-4.36 0c-4 11.57-13.17 20.72-24.74 24.72a2.29 2.29 0 0 0 0 4.36c11.58 4 20.74 13.17 24.74 24.74a2.29 2.29 0 0 0 4.36 0c3.99-11.58 13.15-20.74 24.72-24.74 2.11-.75 2.11-3.64-.01-4.37zM2316 1707.55c-8.1-2.8-14.51-9.2-17.3-17.3a1.603 1.603 0 0 0-3.05 0c-2.8 8.1-9.22 14.51-17.32 17.3a1.6 1.6 0 0 0 0 3.05c8.1 2.8 14.52 9.22 17.32 17.32a1.603 1.603 0 0 0 3.05 0c2.8-8.1 9.2-14.52 17.3-17.32a1.6 1.6 0 0 0 0-3.05zM745.99 431.71c-10.19-3.52-18.25-11.58-21.76-21.76-.64-1.87-3.19-1.87-3.84 0a35.232 35.232 0 0 1-21.79 21.76c-1.87.64-1.87 3.19 0 3.84 10.19 3.52 18.27 11.59 21.79 21.79a2.015 2.015 0 0 0 3.84 0c3.52-10.19 11.58-18.27 21.77-21.79 1.86-.65 1.86-3.2-.01-3.84z" class="colord9d9e7 svgShape"></path><g fill="#000000" class="color000000 svgShape"><path fill="#d9e3e7" d="M596.47 715.34c-2.9.91 2.66-17.23 12.42-40.52 9.76-23.29 20.03-42.91 22.94-43.82 2.9-.91-2.66 17.23-12.42 40.52-9.76 23.29-20.03 42.91-22.94 43.82zM591.5 688.18c-2.33.35 2.66-14.8 11.15-33.84 8.49-19.04 17.27-34.76 19.6-35.11 2.34-.35-2.65 14.8-11.14 33.84-8.5 19.04-17.28 34.76-19.61 35.11zM676.1 1767.95c2.2-2.1 5.24 16.63 6.78 41.83s1 47.34-1.2 49.45c-2.2 2.1-5.24-16.63-6.78-41.83-1.54-25.21-1-47.35 1.2-49.45zM692.57 1790.11c1.94-1.35 4.16 14.45 4.96 35.28.8 20.83-.12 38.81-2.06 40.16-1.94 1.35-4.16-14.45-4.96-35.28-.8-20.83.12-38.81 2.06-40.16z" class="colord9d9e7 svgShape"></path></g><g fill="#000000" class="color000000 svgShape"><g fill="#000000" class="color000000 svgShape"><path fill="#e9eff2" fill-rule="evenodd" d="M1909.53 2772.23s-349.06.25-703.09-16.34c-354.03-16.59-443.58 1.71-161.55 24.55s881.36 9.78 864.64-8.21z" clip-rule="evenodd" class="colore9e9f2 svgShape"></path><path fill="#e9eff2" fill-rule="evenodd" d="M839.19 2750.12c33.96-20.76-183.18-26.85-166.37-10.46 16.81 16.39 148.49 21.39 166.37 10.46z" clip-rule="evenodd" class="colore9e9f2 svgShape"></path></g><ellipse cx="1500" cy="2605.32" fill="#e9eff2" rx="1054.53" ry="147.38" class="colore9e9f2 svgShape"></ellipse></g></g><g fill="#000000" class="color000000 svgShape"><g fill="#000000" class="color000000 svgShape"><path fill="#c8d6dc" d="M987.43 2615.45c-92.69 0-168.1-75.41-168.1-168.1V375.48c0-92.69 75.41-168.11 168.1-168.11h944.39c92.69 0 168.11 75.41 168.11 168.11v2071.85c0 92.7-75.42 168.11-168.11 168.11H987.43z" class="colorc8c8dc svgShape"></path><path fill="#e9eff2" d="M2031.78 375.46v2071.9c0 55.19-44.72 99.99-99.99 99.99H987.45c-55.19 0-100-44.8-100-99.99V375.46c0-55.19 44.8-99.91 100-99.91h404.41c0 37.39 30.32 67.8 67.8 67.8 37.39 0 67.8-30.41 67.8-67.8h404.32c55.28 0 100 44.71 100 99.91z" class="colore9e9f2 svgShape"></path><path fill="#d9e3e7" d="M1881.72 1643.54h-853.18c-10.6 0-19.2 8.6-19.2 19.2v192.13c0 10.6 8.6 19.2 19.2 19.2h853.18c10.6 0 19.2-8.6 19.2-19.2v-192.13c0-10.61-8.6-19.2-19.2-19.2z" class="colord9d9e7 svgShape"></path><path fill="#c8d6dc" d="M1106.06 1700.9h56.06v36.76h-56.06z" class="colorc8c8dc svgShape"></path><path fill="#c8d6dc" d="M1404.6 1779.94h152.77v36.77H1404.6z" transform="rotate(-180 1480.987 1798.324)" class="colorc8c8dc svgShape"></path><path fill="#c8d6dc" d="M1651.42 1700.9h152.77v115.81h-152.77z" transform="rotate(-180 1727.812 1758.802)" class="colorc8c8dc svgShape"></path><path fill="#c8d6dc" d="M1191.48 1700.9h145.5v36.76h-145.5z" class="colorc8c8dc svgShape"></path><path fill="#c8d6dc" d="M1302.36 1779.94h72.87v36.77h-72.87z" transform="rotate(-180 1338.799 1798.324)" class="colorc8c8dc svgShape"></path><path fill="#c8d6dc" d="M1359.52 1700.9h197.85v36.76h-197.85z" class="colorc8c8dc svgShape"></path><path fill="#c8d6dc" d="M1106.06 1779.94h170.43v36.77h-170.43z" transform="rotate(-180 1191.27 1798.324)" class="colorc8c8dc svgShape"></path><path fill="#b8c9d1" d="M1688.11 1737.8c1.01-7.99 22.75-16.25 26-11.38 3.25 4.87 29.44 32.51 29.44 32.51l88.1-49.84s5.42 1.62 4.87 5.96c-.54 4.33-85.93 79.25-95.68 84.12-9.75 4.87-55.09-42.73-52.73-61.37z" class="colorb8b8d1 svgShape"></path><path fill="#d9e3e7" d="M1881.72 1957.52h-853.18c-10.6 0-19.2 8.6-19.2 19.2v192.13c0 10.6 8.6 19.2 19.2 19.2h853.18c10.6 0 19.2-8.6 19.2-19.2v-192.13c0-10.6-8.6-19.2-19.2-19.2z" class="colord9d9e7 svgShape"></path><path fill="#c8d6dc" d="M1106.06 2014.88h56.06v36.76h-56.06z" class="colorc8c8dc svgShape"></path><path fill="#c8d6dc" d="M1404.6 2093.93h152.77v36.77H1404.6z" transform="rotate(-180 1480.987 2112.31)" class="colorc8c8dc svgShape"></path><path fill="#c8d6dc" d="M1651.42 2014.88h152.77v115.81h-152.77z" transform="rotate(-180 1727.812 2072.787)" class="colorc8c8dc svgShape"></path><path fill="#c8d6dc" d="M1191.48 2014.88h145.5v36.76h-145.5z" class="colorc8c8dc svgShape"></path><path fill="#c8d6dc" d="M1302.36 2093.93h72.87v36.77h-72.87z" transform="rotate(-180 1338.799 2112.31)" class="colorc8c8dc svgShape"></path><path fill="#c8d6dc" d="M1359.52 2014.88h197.85v36.76h-197.85z" class="colorc8c8dc svgShape"></path><path fill="#c8d6dc" d="M1106.06 2093.93h170.43v36.77h-170.43z" transform="rotate(-180 1191.27 2112.31)" class="colorc8c8dc svgShape"></path><path fill="#b8c9d1" d="M1688.11 2051.78c1.01-7.99 22.75-16.25 26-11.38 3.25 4.87 29.44 32.51 29.44 32.51l88.1-49.84s5.42 1.62 4.87 5.96c-.54 4.33-85.93 79.25-95.68 84.12-9.75 4.88-55.09-42.72-52.73-61.37z" class="colorb8b8d1 svgShape"></path><path fill="#d9e3e7" d="M2031.78 716.32V375.46c0-55.19-44.72-99.91-99.99-99.91h-404.32c0 37.39-30.41 67.8-67.8 67.8-37.48 0-67.8-30.41-67.8-67.8H987.45c-55.19 0-100 44.72-100 99.91v340.86h1144.33z" class="colord9d9e7 svgShape"></path><path fill="#e9eff2" d="M1184.15 452.58h-13.65v55.3h-20.12v-55.3h-14.47l1.17-17.77h48.25l-1.18 17.77zM1245.79 458c0 4.39-.67 8.04-2 10.94-1.33 2.91-3.41 5.53-6.23 7.88l9.77 31.06h-21.77l-7.3-26.36h-2.71v26.36h-19.76v-73.07h27.29c7.85 0 13.6 1.84 17.24 5.53 3.65 3.69 5.47 9.57 5.47 17.66zm-22.83 9.41c.86-1.18 1.29-3.31 1.29-6.41s-.43-5.25-1.29-6.47c-.86-1.22-2.27-1.82-4.23-1.82h-3.18v16.47h3.06c2.04-.01 3.49-.6 4.35-1.77zM1312.27 507.88h-19.65l-2.23-11.53h-13.88l-2.24 11.53h-18.71l13.41-73.07h29.88l13.42 73.07zm-24.12-25.3-4.12-26.12h-.82l-4.12 26.12h9.06zM1377.57 507.88h-19.29l-15.18-34h-.95v34h-17.88v-73.07h19.88l14.48 35.06h.94v-35.06h18v73.07zM1396.64 439.99c4.07-4.24 9.66-6.35 16.77-6.35 7.09 0 14.37.7 21.82 2.12l-2.36 18.82c-7.77-1.8-13.1-2.71-16-2.71-3.69 0-5.52 1.49-5.52 4.47 0 1.17.88 2.31 2.64 3.41 1.76 1.1 3.9 2.26 6.42 3.47 2.51 1.22 5.02 2.67 7.53 4.36 2.51 1.69 4.65 4.1 6.42 7.23 1.76 3.14 2.64 6.75 2.64 10.82 0 7.45-2 13.22-5.99 17.3-4 4.08-9.67 6.12-17.01 6.12-7.33 0-14.49-1.14-21.47-3.41l1.29-17.53c8.39 2.43 14.24 3.65 17.53 3.65 3.29 0 4.94-1.45 4.94-4.35 0-1.49-.88-2.86-2.65-4.12-1.76-1.25-3.9-2.51-6.41-3.77-2.52-1.25-5.05-2.71-7.59-4.35-2.55-1.65-4.71-4.04-6.47-7.18-1.76-3.14-2.64-6.87-2.64-11.18-.01-6.97 2.03-12.58 6.11-16.82zM1502.4 507.88h-19.65l-2.23-11.53h-13.88l-2.24 11.53h-18.71l13.41-73.07h29.88l13.42 73.07zm-24.12-25.3-4.12-26.12h-.82l-4.12 26.12h9.06zM1532.52 472.06c0 6.94.69 11.88 2.06 14.82 1.37 2.94 3.63 4.41 6.77 4.41 3.13 0 7.56-.75 13.29-2.24l3.06 16.59c-6.21 2.27-12.44 3.41-18.71 3.41-9.41 0-16.26-3.12-20.53-9.36-4.28-6.24-6.42-15.53-6.42-27.89 0-12.35 2.23-21.8 6.7-28.35s11.77-9.82 21.89-9.82c5.96 0 11.64 1.25 17.06 3.76l-3.18 18.24c-6.12-2.04-10.4-3.06-12.83-3.06-3.45 0-5.84 1.51-7.17 4.53-1.32 3.03-1.99 8.01-1.99 14.96zM1611.01 452.58h-13.65v55.3h-20.12v-55.3h-14.47l1.17-17.77h48.25l-1.18 17.77zM1643.83 507.88h-20v-73.07h20v73.07zM1665.65 442.46c4.51-5.88 11.9-8.82 22.19-8.82 10.27 0 17.63 2.9 22.06 8.7 4.42 5.81 6.65 15.24 6.65 28.3s-2.28 22.73-6.83 29c-4.55 6.28-11.92 9.41-22.12 9.41-10.2 0-17.53-3.1-22-9.3-4.47-6.19-6.7-15.82-6.7-28.88-.01-13.05 2.24-22.52 6.75-28.41zm28.95 13.59c-1.14-2.55-3.45-3.82-6.94-3.82s-5.75 1.27-6.76 3.82c-1.02 2.55-1.53 7.4-1.53 14.53v2.82c0 7.61.56 12.61 1.7 15 1.14 2.39 3.46 3.59 6.94 3.59 3.49 0 5.75-1.13 6.77-3.41 1.02-2.27 1.52-6.99 1.52-14.12v-3.76c0-7.21-.56-12.1-1.7-14.65zM1783.72 507.88h-19.29l-15.18-34h-.95v34h-17.88v-73.07h19.88l14.48 35.06h.94v-35.06h18v73.07zM1229.97 551.77c4.07-4.24 9.66-6.35 16.77-6.35 7.1 0 14.37.7 21.82 2.12l-2.36 18.83c-7.77-1.8-13.1-2.71-16-2.71-3.69 0-5.53 1.49-5.53 4.47 0 1.17.88 2.31 2.64 3.41 1.76 1.1 3.9 2.26 6.41 3.47 2.51 1.22 5.02 2.67 7.53 4.36 2.51 1.69 4.65 4.1 6.41 7.23 1.76 3.14 2.64 6.75 2.64 10.82 0 7.45-2 13.22-5.99 17.3-4 4.08-9.67 6.12-17 6.12s-14.49-1.14-21.47-3.41l1.29-17.53c8.39 2.43 14.24 3.65 17.53 3.65 3.29 0 4.94-1.45 4.94-4.35 0-1.49-.88-2.86-2.65-4.12-1.76-1.25-3.9-2.51-6.41-3.77-2.52-1.25-5.05-2.71-7.59-4.35-2.55-1.65-4.71-4.04-6.47-7.18-1.76-3.14-2.64-6.87-2.64-11.18.01-6.99 2.05-12.6 6.13-16.83zM1305.39 601.07c1.01 1.18 2.68 1.77 5 1.77s3.93-.57 4.83-1.71c.9-1.14 1.35-3 1.35-5.59v-48.95h20.24v50.13c0 8.39-2.3 14.51-6.89 18.36-4.59 3.84-11.34 5.76-20.24 5.76-8.9 0-15.53-1.9-19.88-5.71-4.36-3.81-6.53-9.86-6.53-18.18v-50.36h20.59v49.06c-.01 2.44.5 4.24 1.53 5.42zM1423.75 619.66h-18.47v-38.12h-1.06l-6.94 38.12h-18.94l-6.6-38.12h-1.17v38.12h-18.24l2.47-73.07h26.48l6.59 39.54h.94l6.36-39.54h26.12l2.46 73.07zM1510 619.66h-18.47v-38.12h-1.06l-6.94 38.12h-18.94l-6.6-38.12h-1.17v38.12h-18.24l2.47-73.07h26.48l6.59 39.54h.94l6.36-39.54h26.12l2.46 73.07zM1578 619.66h-19.65l-2.23-11.53h-13.88l-2.24 11.53h-18.71l13.41-73.07h29.88l13.42 73.07zm-24.12-25.3-4.12-26.12h-.82l-4.12 26.12h9.06zM1640.01 569.77c0 4.39-.67 8.04-2 10.94-1.33 2.91-3.41 5.53-6.23 7.89l9.77 31.06h-21.76l-7.3-26.36h-2.71v26.36h-19.76v-73.07h27.29c7.85 0 13.6 1.84 17.24 5.53 3.64 3.69 5.46 9.57 5.46 17.65zm-22.83 9.41c.86-1.18 1.29-3.31 1.29-6.42 0-3.1-.43-5.25-1.29-6.47-.86-1.22-2.27-1.82-4.23-1.82h-3.18v16.47h3.06c2.03 0 3.49-.58 4.35-1.76zM1703.42 546.59 1686 597.07v22.59h-20v-22.59l-17.18-50.48h22.12l5.3 23.77h.94l5.06-23.77h21.18z" class="colore9e9f2 svgShape"></path></g><g fill="#000000" class="color000000 svgShape"><path fill="#f59e0b" d="M1741.06 1159.85c-26.03-140.8-149.7-247.74-297.93-247.74-16.15 0-32.05 1.3-47.48 3.71-144.64 22.87-255.52 148.35-255.52 299.3 0 83.65 34.05 159.42 89.02 214.33 54.86 54.73 130.56 88.66 213.98 88.66 167.09 0 303-135.91 303-302.99 0-18.85-1.72-37.36-5.07-55.27zm-297.94 240.44c-51.01 0-97.21-20.74-130.74-54.2-33.64-33.52-54.43-79.83-54.43-130.96 0-92.21 67.75-168.91 156.12-182.94 9.48-1.47 19.14-2.24 29.04-2.24 90.56 0 166.14 65.34 182.05 151.41 2.06 10.96 3.12 22.21 3.12 33.76.02 102.1-83.06 185.17-185.16 185.17z" class="colorffcd5c svgShape"></path><path fill="#19aff2" d="m1396.03 880.86 25.98 173.04s140.26 2.75 172.35 128.34l174.46-38.03c.01.01-54.08-300.72-372.79-263.35z" class="color1965f2 svgShape"></path><path fill="#c8d6dc" d="M1638.27 936.22c-3.21-3.49-55.49 62.8-55.49 62.8l-8.59-68.44 64.08 5.64z" class="colorc8c8dc svgShape"></path><path fill="#c8d6dc" d="M1891.13 839.18h-335.77c-6.05 0-10.96 4.91-10.96 10.96v81.64c0 6.05 4.91 10.96 10.96 10.96h335.77c6.05 0 10.96-4.91 10.96-10.96v-81.64c0-6.05-4.91-10.96-10.96-10.96z" class="colorc8c8dc svgShape"></path><path fill="#e9eff2" d="M1578.1 870.67c2.6-2.68 6.14-4.01 10.65-4 4.51.01 9.12.47 13.84 1.38l-1.53 11.94c-4.92-1.16-8.31-1.74-10.14-1.75-2.34-.01-3.51.94-3.52 2.83 0 .75.55 1.47 1.67 2.17 1.12.7 2.47 1.44 4.06 2.21 1.59.78 3.18 1.7 4.77 2.78 1.59 1.07 2.94 2.61 4.05 4.6 1.11 1.99 1.67 4.28 1.66 6.87-.01 4.73-1.29 8.38-3.84 10.96s-6.15 3.87-10.8 3.85c-4.66-.01-9.19-.75-13.62-2.2l.85-11.12c5.32 1.56 9.02 2.34 11.12 2.34 2.09.01 3.14-.91 3.14-2.75 0-.95-.55-1.82-1.67-2.62-1.12-.8-2.47-1.6-4.06-2.4a51.09 51.09 0 0 1-4.81-2.78c-1.61-1.05-2.98-2.57-4.09-4.57-1.12-1.99-1.67-4.36-1.66-7.09.03-4.42 1.34-7.97 3.93-10.65zM1627.81 898.72l-3.44-.01-.04 15.15-12.54-.03.13-46.35 15.15.04c5.32.02 9.28 1.25 11.86 3.69s3.86 6.46 3.85 12.03c-.02 5.57-1.25 9.55-3.69 11.93s-6.2 3.57-11.28 3.55zm1.45-10.07c.45-.85.68-2.36.68-4.55.01-2.19-.24-3.73-.73-4.63-.49-.9-1.49-1.35-2.98-1.35l-1.79-.01-.03 11.79 2.09.01c1.39 0 2.31-.41 2.76-1.26zM1675.24 914.01l-25.08-.07.13-46.35 25.83.07-.78 11.42-12.32-.03-.02 6.94 10.67.03-.03 9.85-10.67-.03-.02 7.69 13.06.04-.77 10.44zM1717.86 914.13l-12.24-.03-9.57-21.6h-.59l-.06 21.57-11.35-.03.13-46.35 12.62.04 9.11 22.27h.6l.06-22.24 11.42.03-.13 46.34zM1762.71 890.07c-.05 16.12-6.44 24.17-19.17 24.13l-15.38-.04.13-46.35 15.67.04c6.82.02 11.65 1.94 14.5 5.75 2.85 3.81 4.27 9.3 4.25 16.47zm-14.25 10.59c.77-1.86 1.17-5 1.19-9.4.01-4.41-.39-7.53-1.21-9.37-.82-1.84-2.57-2.77-5.26-2.78l-2.24-.01-.07 24.33 2.46.01c2.65.01 4.35-.91 5.13-2.78zM1784.59 914.31l-12.69-.04.13-46.35 12.69.04-.13 46.35zM1829.45 914.44l-12.24-.03-9.57-21.6h-.59l-.06 21.57-11.35-.03.13-46.35 12.62.04 9.11 22.27h.6l.06-22.24 11.42.03-.13 46.34zM1867.75 882c-4.77-1.46-8.26-2.19-10.48-2.19-2.21-.01-3.73.96-4.56 2.9-.83 1.94-1.24 5.01-1.26 9.21-.01 4.21.36 7.27 1.13 9.18.76 1.92 2.34 2.88 4.73 2.89.7 0 2.04-.19 4.03-.58l.02-5.67-3.36-.01.02-8.81 14.26.04-.07 25.6-8.81-.02-1.19-2.39h-.3c-.85.7-1.52 1.22-2.02 1.56-1.4 1.04-3.36 1.56-5.9 1.55-10.4-.03-15.58-7.91-15.53-23.63.02-7.86 1.41-13.87 4.16-18.02s7.35-6.21 13.83-6.19c5.17.01 9.62.82 13.35 2.43l-2.05 12.15z" class="colore9e9f2 svgShape"></path><path fill="#c8d6dc" d="m1658.1 1428.45-40.62-46.28v46.28z" class="colorc8c8dc svgShape"></path><path fill="#c8d6dc" d="M1889.47 1417.35h-328.74c-6.4 0-11.59 5.19-11.59 11.59v86.32c0 6.4 5.19 11.59 11.59 11.59h328.74c6.4 0 11.59-5.19 11.59-11.59v-86.32c-.01-6.4-5.19-11.59-11.59-11.59z" class="colorc8c8dc svgShape"></path><path fill="#e9eff2" d="M1612.12 1498.88h-14.25v-52.05h14.25v52.05zM1662.48 1498.88h-13.74l-10.81-24.22h-.68v24.22h-12.73v-52.05h14.16l10.31 24.98h.67v-24.98h12.82v52.05zM1686.96 1473.36c0 4.95.49 8.46 1.47 10.56.98 2.1 2.59 3.14 4.82 3.14 2.23 0 5.39-.53 9.47-1.59l2.18 11.82c-4.42 1.62-8.86 2.43-13.33 2.43-6.7 0-11.58-2.22-14.62-6.66-3.05-4.44-4.57-11.06-4.57-19.87 0-8.8 1.59-15.53 4.77-20.2 3.19-4.67 8.38-7 15.59-7 4.24 0 8.29.89 12.16 2.68l-2.26 12.99c-4.36-1.45-7.41-2.18-9.14-2.18-2.46 0-4.16 1.08-5.11 3.23-.95 2.16-1.43 5.71-1.43 10.65zM1715.75 1452.28c3.21-4.19 8.48-6.29 15.81-6.29 7.32 0 12.56 2.07 15.72 6.2 3.15 4.14 4.73 10.86 4.73 20.16s-1.62 16.19-4.86 20.66c-3.24 4.47-8.49 6.7-15.76 6.7-7.26 0-12.49-2.21-15.67-6.62-3.19-4.41-4.77-11.27-4.77-20.58-.02-9.29 1.59-16.03 4.8-20.23zm20.62 9.68c-.81-1.81-2.45-2.72-4.95-2.72-2.48 0-4.09.91-4.82 2.72-.73 1.82-1.09 5.27-1.09 10.35v2.01c0 5.42.4 8.98 1.21 10.69.81 1.71 2.46 2.55 4.95 2.55s4.09-.81 4.82-2.43c.72-1.62 1.09-4.98 1.09-10.06v-2.68c0-5.13-.4-8.61-1.21-10.43zM1812.27 1498.88h-13.16v-27.16h-.76l-4.95 27.16h-13.49l-4.7-27.16h-.83v27.16h-12.99l1.76-52.05h18.86l4.69 28.16h.67l4.53-28.16h18.61l1.76 52.05zM1851.49 1498.88h-28.16v-52.05h29l-.84 12.82h-13.83v7.8h11.98v11.06h-11.98v8.63h14.66l-.83 11.74z" class="colore9e9f2 svgShape"></path></g><g fill="#000000" class="color000000 svgShape"><path fill="#c8d6dc" d="M2323.1 1457.99c7.79 45.45-22.73 88.61-68.19 96.41-45.45 7.79-88.61-22.73-96.41-68.19-7.79-45.45 22.73-88.61 68.19-96.41 45.46-7.79 88.62 22.74 96.41 68.19z" class="colorc8c8dc svgShape"></path><path fill="#a7bcc6" d="M2305.5 1461.01c4.71 27.46-8.89 53.83-31.96 66.61 20.09-14.52 31.32-39.66 26.85-65.74-4.47-26.08-23.44-46.04-47.22-53.04 26.01 4.38 47.62 24.71 52.33 52.17z" class="colora7a7c6 svgShape"></path><path fill="#e9eff2" d="M2176.11 1483.19c4.71 27.46 26.32 47.79 52.33 52.16-23.78-7-42.75-26.96-47.22-53.04-4.47-26.08 6.76-51.22 26.86-65.74-23.07 12.79-36.67 39.17-31.97 66.62z" class="colore9e9f2 svgShape"></path><path fill="#a7bcc6" d="M2232.89 1459.39c.21 1.21 1.03 2.08 2.48 2.6 1.45.53 2.62.93 3.52 1.2.9.27 2.24.64 4.03 1.11 5.99 1.46 10.62 3.42 13.87 5.89 3.26 2.47 5.13 5.14 5.62 8 .8 4.68.53 8.87-.81 12.6-1.34 3.72-3.65 6.64-6.94 8.76l2.61 14.57-14.02 2.4-2.12-1.5-2.08-12.1c-5.68-.11-10.55-2.03-14.61-5.76-.33-.1-.52-.3-.57-.6-.05-.3-.06-.69-.02-1.16.04-.47.71-1.85 2.03-4.13 1.31-2.28 2.47-3.51 3.44-3.68.3-.05.63.05.98.3 4.54 2.48 8.69 3.4 12.46 2.75 2.11-.36 3.59-1.24 4.44-2.63.85-1.38 1.15-2.8.9-4.23-.25-1.43-1.05-2.5-2.41-3.2-1.36-.7-3-1.33-4.92-1.89-1.92-.56-2.96-.87-3.13-.92-.17-.05-.39-.13-.68-.23-.29-.1-.56-.17-.79-.21-4.17-1.22-7.83-3.02-10.99-5.39-3.16-2.37-5.04-5.29-5.64-8.76-.85-4.98-.45-8.98 1.2-12.02 1.65-3.04 4.64-5.32 8.95-6.83l-2.27-14.63 12.55-2.15 2.12 1.5 2.29 13.35c2.77.3 4.96.86 6.57 1.67l.11-.02c.67.27 1.1.67 1.31 1.17.2.51.34 1.65.41 3.42 0 4.5-.53 6.84-1.59 7.02-.23.04-.46 0-.72-.11l-4.66-1.41c-3.46-.72-6.36-.89-8.7-.49-3.33.74-4.75 2.65-4.22 5.74zM1744.02 2393.3c-38.98 27.93-100.86 26.2-138.22-3.86s-36.04-77.08 2.93-105c38.98-27.93 100.86-26.2 138.22 3.86 37.36 30.05 36.04 77.06-2.93 105z" class="colora7a7c6 svgShape"></path><path fill="#c8d6dc" d="M1743.5 2377.72c-38.98 27.93-100.86 26.2-138.22-3.86s-36.04-77.07 2.93-105c38.98-27.93 100.86-26.2 138.22 3.86s36.05 77.07-2.93 105z" class="colorc8c8dc svgShape"></path><path fill="#a7bcc6" d="M1729.03 2366.08c-23.55 16.87-58.05 19.58-85.57 8.62 27.26 7.9 59.01 4.03 81.37-12 22.36-16.02 29.29-39.87 20.49-60.99 12.82 21.5 7.26 47.5-16.29 64.37z" class="colora7a7c6 svgShape"></path><path fill="#e9eff2" d="M1622.69 2280.5c-23.54 16.87-29.1 42.87-16.29 64.37-8.8-21.12-1.87-44.97 20.49-60.99 22.36-16.02 54.11-19.89 81.37-12-27.52-10.96-62.03-8.25-85.57 8.62z" class="colore9e9f2 svgShape"></path><path fill="#a7bcc6" d="M1682.2 2312.49c-.92.66-1.19 1.59-.8 2.78.39 1.19.73 2.15 1.02 2.86.29.71.75 1.77 1.39 3.16 2.24 4.61 3.25 8.54 3.02 11.77-.23 3.23-1.44 5.64-3.63 7.21-3.58 2.56-7.37 4.21-11.37 4.93-4 .73-7.88.46-11.63-.81l-11.08 8.06-10.28-8.27.06-2.06 9.25-6.63c-3.23-3.83-4.41-7.9-3.56-12.21-.11-.26-.04-.47.19-.64.23-.16.56-.34.99-.52.43-.18 2.02-.33 4.76-.45 2.74-.12 4.48.11 5.2.69.22.18.32.44.32.78.51 4.09 2.14 7.25 4.9 9.48 1.55 1.24 3.17 1.85 4.87 1.81 1.69-.04 3.09-.45 4.19-1.24 1.09-.78 1.55-1.78 1.35-2.99-.19-1.21-.61-2.57-1.24-4.09-.64-1.52-.98-2.35-1.03-2.48-.06-.13-.12-.31-.19-.55a2.75 2.75 0 0 0-.28-.62c-1.38-3.3-1.97-6.52-1.76-9.65.2-3.13 1.63-5.64 4.28-7.55 3.81-2.73 7.51-4.2 11.1-4.42 3.59-.22 7.31.77 11.15 2.98l11.33-7.86 9.2 7.4-.06 2.06-10.21 7.32c1.36 1.97 2.16 3.66 2.4 5.09l.08.07c.15.56.07 1.02-.25 1.38-.32.36-1.23.94-2.72 1.76-3.9 1.95-6.23 2.62-7.01 2a.904.904 0 0 1-.33-.52l-1.51-3.71c-1.4-2.61-2.95-4.61-4.66-5.99-2.6-1.91-5.09-2.02-7.45-.33zM2189.82 2328.41c-37.1 26.58-96 24.94-131.56-3.68s-34.31-73.36 2.79-99.95c37.1-26.58 96-24.94 131.56 3.68s34.31 73.37-2.79 99.95z" class="colora7a7c6 svgShape"></path><path fill="#c8d6dc" d="M2189.33 2313.59c-37.1 26.58-96 24.94-131.56-3.68-35.56-28.61-34.31-73.36 2.79-99.95 37.1-26.58 96-24.94 131.56 3.68 35.56 28.61 34.31 73.36-2.79 99.95z" class="colorc8c8dc svgShape"></path><path fill="#a7bcc6" d="M2175.56 2302.5c-22.41 16.06-55.25 18.64-81.45 8.2 25.94 7.52 56.17 3.83 77.45-11.42 21.29-15.25 27.88-37.95 19.5-58.05 12.2 20.47 6.91 45.22-15.5 61.27z" class="colora7a7c6 svgShape"></path><path fill="#e9eff2" d="M2074.34 2221.05c-22.41 16.06-27.7 40.8-15.51 61.27-8.38-20.1-1.78-42.8 19.5-58.05 21.29-15.25 51.51-18.93 77.45-11.42-26.19-10.44-59.03-7.86-81.44 8.2z" class="colore9e9f2 svgShape"></path><path fill="#a7bcc6" d="M2130.98 2251.5c-.88.63-1.13 1.51-.76 2.65.37 1.13.69 2.04.97 2.72.28.68.72 1.68 1.33 3.01 2.14 4.39 3.09 8.13 2.87 11.21-.22 3.08-1.37 5.37-3.46 6.86-3.41 2.44-7.01 4-10.82 4.69-3.81.69-7.5.43-11.07-.77l-10.54 7.67-9.79-7.87.06-1.96 8.81-6.31c-3.07-3.64-4.2-7.52-3.39-11.62-.1-.25-.04-.45.18-.61.22-.16.53-.32.94-.49.41-.17 1.92-.32 4.53-.43 2.61-.11 4.26.11 4.95.66.21.17.31.42.3.75.48 3.9 2.04 6.9 4.67 9.02 1.47 1.18 3.02 1.76 4.63 1.72 1.61-.04 2.94-.43 3.99-1.18 1.04-.75 1.47-1.7 1.29-2.85-.18-1.15-.58-2.45-1.18-3.89-.61-1.45-.93-2.23-.98-2.36-.05-.12-.11-.3-.19-.53a3.25 3.25 0 0 0-.27-.59c-1.31-3.14-1.87-6.2-1.68-9.18.19-2.98 1.55-5.37 4.07-7.18 3.62-2.6 7.14-4 10.57-4.21 3.42-.21 6.96.74 10.61 2.84l10.78-7.48 8.76 7.05-.05 1.96-9.72 6.96c1.29 1.87 2.05 3.49 2.28 4.84l.08.06c.15.53.07.97-.24 1.31-.31.34-1.17.9-2.59 1.67-3.71 1.86-5.93 2.49-6.67 1.9a.876.876 0 0 1-.31-.5l-1.43-3.53c-1.33-2.49-2.81-4.39-4.44-5.7-2.47-1.81-4.84-1.92-7.09-.31z" class="colora7a7c6 svgShape"></path><g fill="#000000" class="color000000 svgShape"><g fill="#000000" class="color000000 svgShape"><path fill="#c8d6dc" d="M1164.4 2517.48c54.37-26.13 99.05 32.94 99.05 32.94s66.73-141.23 119.73-149.85c52.99-8.62 28.55 54.97 28.55 54.97s40.34-103.21 83.76-95.25c43.42 7.96.92 99.24.92 99.24s25.97-23.6 41.97-3.74c16.01 19.86-11.32 38.94-11.32 38.94s40.54 11.86 30.22 34.33l-10.32 22.47s40.94-51.5 63.11-38.18c22.17 13.31 17.48 45.65 17.48 45.65s9.88-58.33 20.01-61.84c10.13-3.51 3.44 38.66 3.44 38.66s9.45-25.63 21.68-13.83c9.71 9.37 2.59 27.71-.76 34.86 4.18-7.98 16.19-28.33 23.3-13.44 8.72 18.24-8.14 69.46-8.14 69.46l-518.84 1.22c-.02.01-58.22-70.49-3.84-96.61z" class="colorc8c8dc svgShape"></path><path fill="#b8c9d1" d="M1281.92 2555.69c32.87-15.8 59.88 19.91 59.88 19.91s-20.65-77.69 11.39-82.9c32.04-5.21 78.25 25.54 78.25 25.54s-6.79-62.66 19.46-57.85c26.25 4.81 31.73 60.26 31.73 60.26s15.7-14.27 25.38-2.26-6.85 23.54-6.85 23.54 24.51 7.17 18.27 20.75l-6.24 13.58s24.75-31.13 38.15-23.08c13.41 8.05 10.57 27.6 10.57 27.6s25.47-26.18 40.91-9.42c8.28 8.99-4.92 41.99-4.92 41.99l-313.67.74c0 .01-35.18-42.61-2.31-58.4z" class="colorb8b8d1 svgShape"></path></g><g fill="#000000" class="color000000 svgShape"><path fill="#c8d6dc" d="M2181.12 2515.58c-61.83-29.71-112.64 37.46-112.64 37.46s-75.89-160.6-136.15-170.41c-60.26-9.8-32.46 62.51-32.46 62.51s-45.87-117.37-95.25-108.32c-49.37 9.05-1.04 112.86-1.04 112.86s-29.53-26.83-47.73-4.25c-18.2 22.58 12.88 44.28 12.88 44.28s-46.1 13.49-34.36 39.04l11.74 25.55s-46.55-58.56-71.77-43.42-19.88 51.92-19.88 51.92-11.23-66.33-22.75-70.32c-11.51-3.99-3.92 43.97-3.92 43.97s-10.74-29.15-24.65-15.73c-11.04 10.66-2.94 31.51.86 39.64-4.75-9.08-18.41-32.21-26.5-15.28-9.92 20.74 9.26 78.99 9.26 78.99l590.02 1.39s66.18-80.17 4.34-109.88z" class="colorc8c8dc svgShape"></path><path fill="#a7bcc6" d="M1996.67 2542.97c-46.42-22.31-84.56 28.12-84.56 28.12s29.16-109.71-16.08-117.07c-45.24-7.36-110.5 36.06-110.5 36.06s-23.65-88.86-60.71-82.07c-37.07 6.79-11.58 85.47-11.58 85.47s-22.17-20.15-35.84-3.19c-13.66 16.95 9.67 33.25 9.67 33.25s-34.61 10.12-25.8 29.31l8.81 19.18s-34.95-43.96-53.88-32.6-14.92 38.98-14.92 38.98-35.98-36.97-57.77-13.31c-11.69 12.7 6.95 59.3 6.95 59.3l442.96 1.04c-.01.02 49.67-60.17 3.25-82.47z" class="colora7a7c6 svgShape"></path></g></g><g fill="#000000" class="color000000 svgShape"><path fill="#d9e3e7" d="M1919.43 2648.2c-17.78 0-32.24-14.47-32.24-32.25s14.46-32.25 32.24-32.25h261.63c17.78 0 32.24 14.47 32.24 32.25s-14.46 32.25-32.24 32.25h-261.63z" class="colord9d9e7 svgShape"></path><path fill="#a7bcc6" d="M1922.88 2593.89c-3.96 0-7.18 3.22-7.18 7.18v29.76c0 3.96 3.22 7.18 7.18 7.18s7.18-3.22 7.18-7.18v-29.76c-.01-3.96-3.23-7.18-7.18-7.18zM1948.58 2593.89c-3.96 0-7.18 3.22-7.18 7.18v29.76c0 3.96 3.22 7.18 7.18 7.18 3.96 0 7.18-3.22 7.18-7.18v-29.76c0-3.96-3.22-7.18-7.18-7.18zM1974.28 2593.89c-3.96 0-7.18 3.22-7.18 7.18v29.76c0 3.96 3.22 7.18 7.18 7.18 3.96 0 7.18-3.22 7.18-7.18v-29.76c0-3.96-3.23-7.18-7.18-7.18zM1999.98 2593.89c-3.96 0-7.18 3.22-7.18 7.18v29.76c0 3.96 3.22 7.18 7.18 7.18 3.96 0 7.18-3.22 7.18-7.18v-29.76c0-3.96-3.23-7.18-7.18-7.18zM2025.68 2593.89c-3.96 0-7.18 3.22-7.18 7.18v29.76c0 3.96 3.22 7.18 7.18 7.18s7.18-3.22 7.18-7.18v-29.76c0-3.96-3.22-7.18-7.18-7.18zM2051.38 2593.89c-3.96 0-7.18 3.22-7.18 7.18v29.76c0 3.96 3.22 7.18 7.18 7.18 3.96 0 7.18-3.22 7.18-7.18v-29.76c0-3.96-3.22-7.18-7.18-7.18zM2077.08 2593.89c-3.96 0-7.18 3.22-7.18 7.18v29.76c0 3.96 3.22 7.18 7.18 7.18 3.96 0 7.18-3.22 7.18-7.18v-29.76c0-3.96-3.22-7.18-7.18-7.18zM2102.78 2593.89c-3.96 0-7.18 3.22-7.18 7.18v29.76c0 3.96 3.22 7.18 7.18 7.18 3.96 0 7.18-3.22 7.18-7.18v-29.76c0-3.96-3.22-7.18-7.18-7.18zM2128.48 2593.89c-3.96 0-7.18 3.22-7.18 7.18v29.76c0 3.96 3.22 7.18 7.18 7.18 3.96 0 7.18-3.22 7.18-7.18v-29.76c0-3.96-3.22-7.18-7.18-7.18zM2154.18 2593.89c-3.96 0-7.18 3.22-7.18 7.18v29.76c0 3.96 3.22 7.18 7.18 7.18 3.96 0 7.18-3.22 7.18-7.18v-29.76c0-3.96-3.22-7.18-7.18-7.18zM2179.88 2593.89c-3.96 0-7.18 3.22-7.18 7.18v29.76c0 3.96 3.22 7.18 7.18 7.18 3.96 0 7.18-3.22 7.18-7.18v-29.76c0-3.96-3.22-7.18-7.18-7.18z" class="colora7a7c6 svgShape"></path><path fill="#c8d6dc" d="M1946.26 2583.71c-17.78 0-32.24-14.47-32.24-32.25s14.46-32.25 32.24-32.25h261.63c17.78 0 32.24 14.47 32.24 32.25s-14.46 32.25-32.24 32.25h-261.63z" class="colorc8c8dc svgShape"></path><path fill="#a7bcc6" d="M1949.71 2529.4c-3.96 0-7.18 3.22-7.18 7.18v29.76c0 3.96 3.22 7.18 7.18 7.18 3.96 0 7.18-3.22 7.18-7.18v-29.76c-.01-3.96-3.23-7.18-7.18-7.18zM1975.41 2529.4c-3.96 0-7.18 3.22-7.18 7.18v29.76c0 3.96 3.22 7.18 7.18 7.18 3.96 0 7.18-3.22 7.18-7.18v-29.76c-.01-3.96-3.23-7.18-7.18-7.18zM2001.1 2529.4c-3.96 0-7.18 3.22-7.18 7.18v29.76c0 3.96 3.22 7.18 7.18 7.18 3.96 0 7.18-3.22 7.18-7.18v-29.76c0-3.96-3.22-7.18-7.18-7.18zM2026.81 2529.4c-3.96 0-7.18 3.22-7.18 7.18v29.76c0 3.96 3.22 7.18 7.18 7.18 3.96 0 7.18-3.22 7.18-7.18v-29.76c-.01-3.96-3.23-7.18-7.18-7.18zM2052.51 2529.4c-3.96 0-7.18 3.22-7.18 7.18v29.76c0 3.96 3.22 7.18 7.18 7.18 3.96 0 7.18-3.22 7.18-7.18v-29.76c-.01-3.96-3.22-7.18-7.18-7.18zM2078.21 2529.4c-3.96 0-7.18 3.22-7.18 7.18v29.76c0 3.96 3.22 7.18 7.18 7.18 3.96 0 7.18-3.22 7.18-7.18v-29.76c-.01-3.96-3.23-7.18-7.18-7.18zM2103.91 2529.4c-3.96 0-7.18 3.22-7.18 7.18v29.76c0 3.96 3.22 7.18 7.18 7.18 3.96 0 7.18-3.22 7.18-7.18v-29.76c0-3.96-3.23-7.18-7.18-7.18zM2129.61 2529.4c-3.96 0-7.18 3.22-7.18 7.18v29.76c0 3.96 3.22 7.18 7.18 7.18 3.96 0 7.18-3.22 7.18-7.18v-29.76c-.01-3.96-3.23-7.18-7.18-7.18zM2155.31 2529.4c-3.96 0-7.18 3.22-7.18 7.18v29.76c0 3.96 3.22 7.18 7.18 7.18 3.96 0 7.18-3.22 7.18-7.18v-29.76c-.01-3.96-3.23-7.18-7.18-7.18zM2181.01 2529.4c-3.96 0-7.18 3.22-7.18 7.18v29.76c0 3.96 3.22 7.18 7.18 7.18 3.96 0 7.18-3.22 7.18-7.18v-29.76c-.01-3.96-3.22-7.18-7.18-7.18zM2206.71 2529.4c-3.96 0-7.18 3.22-7.18 7.18v29.76c0 3.96 3.22 7.18 7.18 7.18 3.96 0 7.18-3.22 7.18-7.18v-29.76c0-3.96-3.23-7.18-7.18-7.18z" class="colora7a7c6 svgShape"></path><path fill="#d9e3e7" d="M1919.43 2519.22c-17.78 0-32.24-14.47-32.24-32.25s14.46-32.25 32.24-32.25h261.63c17.78 0 32.24 14.47 32.24 32.25s-14.46 32.25-32.24 32.25h-261.63z" class="colord9d9e7 svgShape"></path><path fill="#a7bcc6" d="M1922.88 2464.91c-3.96 0-7.18 3.22-7.18 7.18v29.76c0 3.96 3.22 7.18 7.18 7.18s7.18-3.22 7.18-7.18v-29.76c-.01-3.96-3.23-7.18-7.18-7.18zM1948.58 2464.91c-3.96 0-7.18 3.22-7.18 7.18v29.76c0 3.96 3.22 7.18 7.18 7.18 3.96 0 7.18-3.22 7.18-7.18v-29.76c0-3.96-3.22-7.18-7.18-7.18zM1974.28 2464.91c-3.96 0-7.18 3.22-7.18 7.18v29.76c0 3.96 3.22 7.18 7.18 7.18 3.96 0 7.18-3.22 7.18-7.18v-29.76c0-3.96-3.23-7.18-7.18-7.18zM1999.98 2464.91c-3.96 0-7.18 3.22-7.18 7.18v29.76c0 3.96 3.22 7.18 7.18 7.18 3.96 0 7.18-3.22 7.18-7.18v-29.76c0-3.96-3.23-7.18-7.18-7.18zM2025.68 2464.91c-3.96 0-7.18 3.22-7.18 7.18v29.76c0 3.96 3.22 7.18 7.18 7.18s7.18-3.22 7.18-7.18v-29.76c0-3.96-3.22-7.18-7.18-7.18zM2051.38 2464.91c-3.96 0-7.18 3.22-7.18 7.18v29.76c0 3.96 3.22 7.18 7.18 7.18 3.96 0 7.18-3.22 7.18-7.18v-29.76c0-3.96-3.22-7.18-7.18-7.18zM2077.08 2464.91c-3.96 0-7.18 3.22-7.18 7.18v29.76c0 3.96 3.22 7.18 7.18 7.18 3.96 0 7.18-3.22 7.18-7.18v-29.76c0-3.96-3.22-7.18-7.18-7.18zM2102.78 2464.91c-3.96 0-7.18 3.22-7.18 7.18v29.76c0 3.96 3.22 7.18 7.18 7.18 3.96 0 7.18-3.22 7.18-7.18v-29.76c0-3.96-3.22-7.18-7.18-7.18zM2128.48 2464.91c-3.96 0-7.18 3.22-7.18 7.18v29.76c0 3.96 3.22 7.18 7.18 7.18 3.96 0 7.18-3.22 7.18-7.18v-29.76c0-3.96-3.22-7.18-7.18-7.18zM2154.18 2464.91c-3.96 0-7.18 3.22-7.18 7.18v29.76c0 3.96 3.22 7.18 7.18 7.18 3.96 0 7.18-3.22 7.18-7.18v-29.76c0-3.96-3.22-7.18-7.18-7.18zM2179.88 2464.91c-3.96 0-7.18 3.22-7.18 7.18v29.76c0 3.96 3.22 7.18 7.18 7.18 3.96 0 7.18-3.22 7.18-7.18v-29.76c0-3.96-3.22-7.18-7.18-7.18z" class="colora7a7c6 svgShape"></path><path fill="#c8d6dc" d="M2084.98 2648.2c-17.78 0-32.24-14.47-32.24-32.25s14.46-32.25 32.24-32.25h261.63c17.78 0 32.24 14.47 32.24 32.25s-14.46 32.25-32.24 32.25h-261.63z" class="colorc8c8dc svgShape"></path><path fill="#a7bcc6" d="M2088.42 2593.89c-3.96 0-7.18 3.22-7.18 7.18v29.76c0 3.96 3.22 7.18 7.18 7.18 3.96 0 7.18-3.22 7.18-7.18v-29.76c0-3.96-3.22-7.18-7.18-7.18zM2114.12 2593.89c-3.96 0-7.18 3.22-7.18 7.18v29.76c0 3.96 3.22 7.18 7.18 7.18s7.18-3.22 7.18-7.18v-29.76c0-3.96-3.22-7.18-7.18-7.18zM2139.82 2593.89c-3.96 0-7.18 3.22-7.18 7.18v29.76c0 3.96 3.22 7.18 7.18 7.18 3.96 0 7.18-3.22 7.18-7.18v-29.76c0-3.96-3.22-7.18-7.18-7.18zM2165.52 2593.89c-3.96 0-7.18 3.22-7.18 7.18v29.76c0 3.96 3.22 7.18 7.18 7.18 3.96 0 7.18-3.22 7.18-7.18v-29.76c0-3.96-3.22-7.18-7.18-7.18zM2191.22 2593.89c-3.96 0-7.18 3.22-7.18 7.18v29.76c0 3.96 3.22 7.18 7.18 7.18 3.96 0 7.18-3.22 7.18-7.18v-29.76c0-3.96-3.22-7.18-7.18-7.18zM2216.92 2593.89c-3.96 0-7.18 3.22-7.18 7.18v29.76c0 3.96 3.22 7.18 7.18 7.18 3.96 0 7.18-3.22 7.18-7.18v-29.76c0-3.96-3.22-7.18-7.18-7.18zM2242.62 2593.89c-3.96 0-7.18 3.22-7.18 7.18v29.76c0 3.96 3.22 7.18 7.18 7.18 3.96 0 7.18-3.22 7.18-7.18v-29.76c0-3.96-3.22-7.18-7.18-7.18zM2268.32 2593.89c-3.96 0-7.18 3.22-7.18 7.18v29.76c0 3.96 3.22 7.18 7.18 7.18 3.96 0 7.18-3.22 7.18-7.18v-29.76c0-3.96-3.22-7.18-7.18-7.18zM2294.02 2593.89c-3.96 0-7.18 3.22-7.18 7.18v29.76c0 3.96 3.22 7.18 7.18 7.18s7.18-3.22 7.18-7.18v-29.76c0-3.96-3.22-7.18-7.18-7.18zM2319.72 2593.89c-3.96 0-7.18 3.22-7.18 7.18v29.76c0 3.96 3.22 7.18 7.18 7.18 3.96 0 7.18-3.22 7.18-7.18v-29.76c0-3.96-3.22-7.18-7.18-7.18zM2345.42 2593.89c-3.96 0-7.18 3.22-7.18 7.18v29.76c0 3.96 3.22 7.18 7.18 7.18s7.18-3.22 7.18-7.18v-29.76c0-3.96-3.22-7.18-7.18-7.18z" class="colora7a7c6 svgShape"></path><path fill="#d9e3e7" d="M2111.81 2583.71c-17.78 0-32.24-14.47-32.24-32.25s14.46-32.25 32.24-32.25h261.63c17.78 0 32.24 14.47 32.24 32.25s-14.46 32.25-32.24 32.25h-261.63z" class="colord9d9e7 svgShape"></path><path fill="#a7bcc6" d="M2115.25 2529.4c-3.96 0-7.18 3.22-7.18 7.18v29.76c0 3.96 3.22 7.18 7.18 7.18 3.96 0 7.18-3.22 7.18-7.18v-29.76c0-3.96-3.22-7.18-7.18-7.18zM2140.95 2529.4c-3.96 0-7.18 3.22-7.18 7.18v29.76c0 3.96 3.22 7.18 7.18 7.18 3.96 0 7.18-3.22 7.18-7.18v-29.76c0-3.96-3.22-7.18-7.18-7.18zM2166.65 2529.4c-3.96 0-7.18 3.22-7.18 7.18v29.76c0 3.96 3.22 7.18 7.18 7.18 3.96 0 7.18-3.22 7.18-7.18v-29.76c0-3.96-3.22-7.18-7.18-7.18zM2192.35 2529.4c-3.96 0-7.18 3.22-7.18 7.18v29.76c0 3.96 3.22 7.18 7.18 7.18 3.96 0 7.18-3.22 7.18-7.18v-29.76c0-3.96-3.22-7.18-7.18-7.18zM2218.05 2529.4c-3.96 0-7.18 3.22-7.18 7.18v29.76c0 3.96 3.22 7.18 7.18 7.18 3.96 0 7.18-3.22 7.18-7.18v-29.76c0-3.96-3.22-7.18-7.18-7.18zM2243.75 2529.4c-3.96 0-7.18 3.22-7.18 7.18v29.76c0 3.96 3.22 7.18 7.18 7.18 3.96 0 7.18-3.22 7.18-7.18v-29.76c0-3.96-3.22-7.18-7.18-7.18zM2269.45 2529.4c-3.96 0-7.18 3.22-7.18 7.18v29.76c0 3.96 3.22 7.18 7.18 7.18 3.96 0 7.18-3.22 7.18-7.18v-29.76c0-3.96-3.22-7.18-7.18-7.18zM2295.15 2529.4c-3.96 0-7.18 3.22-7.18 7.18v29.76c0 3.96 3.22 7.18 7.18 7.18s7.18-3.22 7.18-7.18v-29.76c0-3.96-3.22-7.18-7.18-7.18zM2320.85 2529.4c-3.96 0-7.18 3.22-7.18 7.18v29.76c0 3.96 3.22 7.18 7.18 7.18s7.18-3.22 7.18-7.18v-29.76c0-3.96-3.22-7.18-7.18-7.18zM2346.55 2529.4c-3.96 0-7.18 3.22-7.18 7.18v29.76c0 3.96 3.22 7.18 7.18 7.18s7.18-3.22 7.18-7.18v-29.76c0-3.96-3.22-7.18-7.18-7.18zM2372.25 2529.4c-3.96 0-7.18 3.22-7.18 7.18v29.76c0 3.96 3.22 7.18 7.18 7.18 3.96 0 7.18-3.22 7.18-7.18v-29.76c0-3.96-3.22-7.18-7.18-7.18z" class="colora7a7c6 svgShape"></path><path fill="#d9e3e7" d="M2036.72 2454.73c-17.78 0-32.24-14.47-32.24-32.25s14.46-32.25 32.24-32.25h261.63c17.78 0 32.24 14.47 32.24 32.25s-14.46 32.25-32.24 32.25h-261.63z" class="colord9d9e7 svgShape"></path><path fill="#a7bcc6" d="M2040.16 2400.42c-3.96 0-7.18 3.22-7.18 7.18v29.76c0 3.96 3.22 7.18 7.18 7.18 3.96 0 7.18-3.22 7.18-7.18v-29.76c0-3.96-3.22-7.18-7.18-7.18zM2065.86 2400.42c-3.96 0-7.18 3.22-7.18 7.18v29.76c0 3.96 3.22 7.18 7.18 7.18 3.96 0 7.18-3.22 7.18-7.18v-29.76c0-3.96-3.22-7.18-7.18-7.18zM2091.56 2400.42c-3.96 0-7.18 3.22-7.18 7.18v29.76c0 3.96 3.22 7.18 7.18 7.18 3.96 0 7.18-3.22 7.18-7.18v-29.76c0-3.96-3.22-7.18-7.18-7.18zM2117.26 2400.42c-3.96 0-7.18 3.22-7.18 7.18v29.76c0 3.96 3.22 7.18 7.18 7.18 3.96 0 7.18-3.22 7.18-7.18v-29.76c0-3.96-3.22-7.18-7.18-7.18zM2142.96 2400.42c-3.96 0-7.18 3.22-7.18 7.18v29.76c0 3.96 3.22 7.18 7.18 7.18 3.96 0 7.18-3.22 7.18-7.18v-29.76c0-3.96-3.22-7.18-7.18-7.18zM2168.66 2400.42c-3.96 0-7.18 3.22-7.18 7.18v29.76c0 3.96 3.22 7.18 7.18 7.18 3.96 0 7.18-3.22 7.18-7.18v-29.76c0-3.96-3.22-7.18-7.18-7.18zM2194.36 2400.42c-3.96 0-7.18 3.22-7.18 7.18v29.76c0 3.96 3.22 7.18 7.18 7.18 3.96 0 7.18-3.22 7.18-7.18v-29.76c0-3.96-3.22-7.18-7.18-7.18zM2220.06 2400.42c-3.96 0-7.18 3.22-7.18 7.18v29.76c0 3.96 3.22 7.18 7.18 7.18 3.96 0 7.18-3.22 7.18-7.18v-29.76c0-3.96-3.22-7.18-7.18-7.18zM2245.76 2400.42c-3.96 0-7.18 3.22-7.18 7.18v29.76c0 3.96 3.22 7.18 7.18 7.18 3.96 0 7.18-3.22 7.18-7.18v-29.76c0-3.96-3.22-7.18-7.18-7.18zM2271.46 2400.42c-3.96 0-7.18 3.22-7.18 7.18v29.76c0 3.96 3.22 7.18 7.18 7.18 3.96 0 7.18-3.22 7.18-7.18v-29.76c0-3.96-3.22-7.18-7.18-7.18zM2297.16 2400.42c-3.96 0-7.18 3.22-7.18 7.18v29.76c0 3.96 3.22 7.18 7.18 7.18 3.96 0 7.18-3.22 7.18-7.18v-29.76c0-3.96-3.22-7.18-7.18-7.18z" class="colora7a7c6 svgShape"></path><path fill="#c8d6dc" d="M2084.98 2519.22c-17.78 0-32.24-14.47-32.24-32.25s14.46-32.25 32.24-32.25h261.63c17.78 0 32.24 14.47 32.24 32.25s-14.46 32.25-32.24 32.25h-261.63z" class="colorc8c8dc svgShape"></path><path fill="#a7bcc6" d="M2088.42 2464.91c-3.96 0-7.18 3.22-7.18 7.18v29.76c0 3.96 3.22 7.18 7.18 7.18 3.96 0 7.18-3.22 7.18-7.18v-29.76c0-3.96-3.22-7.18-7.18-7.18zM2114.12 2464.91c-3.96 0-7.18 3.22-7.18 7.18v29.76c0 3.96 3.22 7.18 7.18 7.18s7.18-3.22 7.18-7.18v-29.76c0-3.96-3.22-7.18-7.18-7.18zM2139.82 2464.91c-3.96 0-7.18 3.22-7.18 7.18v29.76c0 3.96 3.22 7.18 7.18 7.18 3.96 0 7.18-3.22 7.18-7.18v-29.76c0-3.96-3.22-7.18-7.18-7.18zM2165.52 2464.91c-3.96 0-7.18 3.22-7.18 7.18v29.76c0 3.96 3.22 7.18 7.18 7.18 3.96 0 7.18-3.22 7.18-7.18v-29.76c0-3.96-3.22-7.18-7.18-7.18zM2191.22 2464.91c-3.96 0-7.18 3.22-7.18 7.18v29.76c0 3.96 3.22 7.18 7.18 7.18 3.96 0 7.18-3.22 7.18-7.18v-29.76c0-3.96-3.22-7.18-7.18-7.18zM2216.92 2464.91c-3.96 0-7.18 3.22-7.18 7.18v29.76c0 3.96 3.22 7.18 7.18 7.18 3.96 0 7.18-3.22 7.18-7.18v-29.76c0-3.96-3.22-7.18-7.18-7.18zM2242.62 2464.91c-3.96 0-7.18 3.22-7.18 7.18v29.76c0 3.96 3.22 7.18 7.18 7.18 3.96 0 7.18-3.22 7.18-7.18v-29.76c0-3.96-3.22-7.18-7.18-7.18zM2268.32 2464.91c-3.96 0-7.18 3.22-7.18 7.18v29.76c0 3.96 3.22 7.18 7.18 7.18 3.96 0 7.18-3.22 7.18-7.18v-29.76c0-3.96-3.22-7.18-7.18-7.18zM2294.02 2464.91c-3.96 0-7.18 3.22-7.18 7.18v29.76c0 3.96 3.22 7.18 7.18 7.18s7.18-3.22 7.18-7.18v-29.76c0-3.96-3.22-7.18-7.18-7.18zM2319.72 2464.91c-3.96 0-7.18 3.22-7.18 7.18v29.76c0 3.96 3.22 7.18 7.18 7.18 3.96 0 7.18-3.22 7.18-7.18v-29.76c0-3.96-3.22-7.18-7.18-7.18zM2345.42 2464.91c-3.96 0-7.18 3.22-7.18 7.18v29.76c0 3.96 3.22 7.18 7.18 7.18s7.18-3.22 7.18-7.18v-29.76c0-3.96-3.22-7.18-7.18-7.18z" class="colora7a7c6 svgShape"></path><ellipse cx="2136.51" cy="2547.31" fill="#a7bcc6" rx="122.76" ry="106.78" transform="rotate(-43.006 2136.307 2547.165)" class="colora7a7c6 svgShape"></ellipse><path fill="#c8d6dc" d="M2010.7 2535.18c-8.82 63.23 35.28 114.49 98.51 114.49 63.23 0 121.64-51.26 130.47-114.49 8.82-63.23-35.28-114.49-98.51-114.49-63.23 0-121.64 51.26-130.47 114.49z" class="colorc8c8dc svgShape"></path><path fill="#a7bcc6" d="M2035.19 2535.18c-5.33 38.2 14.63 70.69 47.1 82.62-28.43-14.97-45.06-46.34-39.99-82.62 5.06-36.28 30.45-67.65 63.06-82.62-35.81 11.93-64.84 44.43-70.17 82.62z" class="colora7a7c6 svgShape"></path><path fill="#e9eff2" d="M2215.19 2535.18c-5.33 38.2-34.36 70.69-70.16 82.62 32.61-14.97 57.99-46.34 63.06-82.62 5.06-36.28-11.57-67.65-40-82.62 32.47 11.93 52.43 44.43 47.1 82.62z" class="colore9e9f2 svgShape"></path><path fill="#a7bcc6" d="M2120.49 2516.17c-.32 1.68.33 3.05 1.97 4.09 1.63 1.05 2.96 1.86 4.01 2.44 1.04.58 2.61 1.39 4.72 2.44 7.11 3.36 12.19 7.08 15.22 11.17 3.04 4.09 4.17 8.13 3.41 12.11-1.26 6.51-3.68 12.11-7.27 16.83-3.59 4.72-8.05 8.13-13.38 10.23l-3.76 20.3h-19.51l-2.03-2.52 3.25-16.83c-7.37-1.47-12.79-5.19-16.25-11.17-.38-.21-.53-.52-.45-.95.08-.42.26-.94.54-1.57.28-.63 1.84-2.34 4.68-5.11 2.84-2.78 4.95-4.17 6.31-4.17.42 0 .8.21 1.14.63 4.71 4.41 9.68 6.61 14.93 6.61 2.94 0 5.3-.84 7.1-2.52 1.79-1.67 2.88-3.51 3.26-5.51.38-1.99-.14-3.62-1.57-4.88-1.43-1.26-3.27-2.49-5.5-3.7-2.23-1.2-3.44-1.86-3.63-1.96-.19-.1-.45-.26-.77-.47-.33-.21-.64-.36-.93-.47-4.84-2.62-8.75-5.9-11.71-9.83-2.96-3.94-3.98-8.31-3.05-13.14 1.34-6.92 3.83-12.24 7.49-15.97 3.65-3.72 8.68-6.11 15.07-7.16l4.24-20.3h17.46l2.03 2.52-3.59 18.57c3.47 1.05 6.05 2.31 7.76 3.77h.16c.74.53 1.11 1.16 1.13 1.89.01.74-.37 2.31-1.15 4.72-2.22 6.09-4.07 9.13-5.54 9.13-.32 0-.61-.1-.88-.31l-5.4-2.99c-4.17-1.78-7.88-2.67-11.12-2.67-4.76.19-7.56 2.45-8.39 6.75zM2126.76 2680.94l-1.4-32.4-188.65 45.77 2.63 38.88z" class="colora7a7c6 svgShape"></path><path fill="#a7bcc6" d="M1931.53 2710.35s25.26-1.48 43.65-5.39c0 0-35.3 10.7-45.23 10.21-9.94-.49 1.58-4.82 1.58-4.82z" class="colora7a7c6 svgShape"></path><path fill="#c8d6dc" d="M2126.37 2671.91c-13.48 1.54-29.12 2.31-29.12 2.31 9.63-1.27 20.58-3.72 28.97-5.81l.15 3.5zM2126.03 2663.96c-19.34 4.72-51.21 8.84-51.21 8.84 18.57-4 40.36-11.53 50.92-15.37l.29 6.53z" class="colorc8c8dc svgShape"></path><path fill="#a7bcc6" d="M1935.16 2727.32s17.79-1.75 30.62-5.01c0 0-24.45 8.53-31.5 8.46-7.06-.08.88-3.45.88-3.45z" class="colora7a7c6 svgShape"></path><path fill="#b8c9d1" d="M1936.71 2694.31s-193.1-46.23-320.63-98.64l6.18 44.1s115.34 56.13 317.07 93.43l-2.62-38.89z" class="colorb8b8d1 svgShape"></path><path fill="#e9eff2" d="M1616.08 2595.66c66.38 31.7 168.68 64.3 320.63 98.64 55.22-13.41 117.61-28.56 188.65-45.82-170.8-27.73-285.52-56-359.1-84.97-56.84 12.18-106.47 22.8-150.18 32.15z" class="colore9e9f2 svgShape"></path><path fill="#a7bcc6" d="M1734.23 2577.95c-26.9 5.79-52.05 11.21-75.62 16.28 6.2 2.69 3.75 6.54-5.55 8.58 57.35 24.21 136.99 48.89 245.13 74.37 11.24-2.65 32.22-2.18 47.2 1.1 28.9-6.95 59.67-14.35 92.49-22.24-16.03-2.99-16.92-8.16-2.33-11.6 1.09-.26 2.27-.51 3.53-.74-118.61-21.93-205.76-44.06-268.11-66.48-.85.23-1.74.44-2.65.64-12.2 2.65-27.48 2.68-34.09.09z" class="colora7a7c6 svgShape"></path><path fill="#c8d6dc" d="m1787.57 2657.71-1.58 40.02s-53.37-11.83-91.05-28.81l9.71-37.74c0-.01 70.96 8.58 82.92 26.53z" class="colorc8c8dc svgShape"></path><path fill="#c8d6dc" d="m1960.93 2617.4-91.39-22.56-164.89 36.33 82.92 26.54z" class="colorc8c8dc svgShape"></path><path fill="#a7bcc6" d="m1781.03 2655.77-2.93 40.1s-48.49-11.01-74.75-23.59l9.53-38.42s55.21 8.44 68.15 21.91z" class="colora7a7c6 svgShape"></path><path fill="#e9eff2" d="m1951.15 2614.98-170.12 40.79-68.15-21.91 165.15-36.93z" class="colore9e9f2 svgShape"></path><path fill="#c8d6dc" d="M1795.61 2628.62c-3.76-1.66-5.36-3.16-4.86-4.48.5-1.33 2.75-2.36 6.71-3.11 3.52-.66 7.07-.94 10.66-.84 3.62.11 6.97.41 10.05.91 3.1.5 6.72 1.2 10.89 2.08 3.72.79 6.62 1.33 8.69 1.61 2.08.29 3.83.29 5.27.02 1.44-.28 2.02-.68 1.78-1.21-.25-.53-1.63-1.18-4.11-1.95-3.94-1.22-9.32-2.22-16.13-3 2.5-1.11 5.04-2.21 7.61-3.32 2.9.29 5.81.7 8.75 1.22 2.95.53 5.74 1.13 8.39 1.82 2.87-.55 5.75-1.1 8.65-1.65 2.54.77 5.11 1.55 7.7 2.32-2.97.57-5.93 1.13-8.86 1.69 4.3 1.67 6.22 3.22 5.72 4.67-.5 1.44-2.96 2.6-7.43 3.46a53.68 53.68 0 0 1-11.41.95c-3.83-.09-7.38-.4-10.64-.93-3.24-.52-6.95-1.23-11.11-2.12-3.78-.8-6.68-1.36-8.72-1.65-2.03-.29-3.77-.3-5.22-.03-2.74.52-1.8 1.54 2.89 3.06 2.48.8 5.5 1.54 9.03 2.19 3.56.66 7.12 1.16 10.67 1.5-2.16 1.12-4.29 2.25-6.38 3.37-3.35-.32-6.96-.85-10.8-1.58-3.81-.72-7.39-1.57-10.74-2.54-2.5.48-4.98.95-7.45 1.42-2.46-.81-4.9-1.62-7.32-2.44 2.58-.46 5.14-.95 7.72-1.44z" class="colorc8c8dc svgShape"></path><path fill="#e9eff2" d="M1904.59 2648.69c-7.03 1.63-6.7 4.35.84 6.09 7.63 1.76 19.66 1.84 26.78.15 7.23-1.72 6.76-4.51-.95-6.21-7.62-1.68-19.52-1.68-26.67-.03zM1725.61 2597.81c-6.2 1.35-7.78 3.68-3.5 5.22 4.31 1.55 12.89 1.7 19.14.32 6.35-1.4 7.94-3.78 3.58-5.3-4.33-1.51-12.92-1.61-19.22-.24z" class="colore9e9f2 svgShape"></path><path fill="#a7bcc6" d="m1938.65 2717.15.29 6.78c-17.12-.13-63.81-14.64-63.81-14.64 22.68 5.77 59.31 7.66 63.52 7.86zM1938.26 2708.18c-19.99-4.25-44.4-11.84-44.4-11.84 13.05 3.32 30.71 5.35 44.17 6.52l.23 5.32zM1620.43 2626.09c11.33 4.79 25.67 10.31 37.79 13.21 0 0-19.19-3.28-37.12-7.87l-.67-5.34zM1618.02 2609.52c10.68 4.41 23.79 9.49 34.69 12.1 0 0-17.16-3.19-34.04-7.35l-.65-4.75z" class="colora7a7c6 svgShape"></path></g></g></g><g fill="#000000" class="color000000 svgShape"><g fill="#000000" class="color000000 svgShape"><g fill="#000000" class="color000000 svgShape"><path fill="#175f80" d="M1067.63 1343.29 910.97 2459.7s-110.6-11.2-126.47-20.07c-15.87-8.86-67.5-1096.34-67.5-1096.34h350.63z" class="color171c80 svgShape"></path><path fill="#114d68" d="M717 1373.54s48.51-2.85 49.22 4.99 5.7 81.27 7.13 90.53-24.27 36.36-28.17 39.21c-3.9 2.85-27.5-9.22-28.17-22.07-.69-12.86-.01-112.66-.01-112.66zM869.14 2439.64c-3.09-.27 10.31-184.46 29.93-411.42 19.62-226.95 38.03-410.72 41.11-410.45 3.09.27-10.31 184.47-29.93 411.42-19.62 226.95-38.02 410.71-41.11 410.45z" class="color111968 svgShape"></path><g fill="#000000" class="color000000 svgShape"><path fill="#fcd593" d="m895.42 2448.88-36.62 132.61-58.81-18.56-2.71-136.24z" class="colorfca993 svgShape"></path><path fill="#0ea5e9" d="M795.87 2514.46c-10.42-7.72-8.64 115.67 0 118.97 8.64 3.29 229.08 9.05 249.46-.01 20.38-9.06 21.61-50.09-12.35-57.05-33.96-6.96-105.17-19.35-126.78-46.47 0 0-14.95-36.19-20.49-39.59-5.54-3.4-7.41 24.15-7.41 24.15s-57.42 18.52-82.43 0z" class="color1996f2 svgShape"></path><path fill="#175f80" d="M1011 2572.02c.48 1.34-2.12 3.2-4.7 6.73-2.59 3.59-4.87 9.42-6.41 16.53-2.99 14.29-3.21 27.03-5.8 27.24-2.31.34-6.39-12.64-3.03-29.19 1.73-8.18 5.8-15.59 10.74-19.13 5.02-3.5 8.95-3.16 9.2-2.18z" class="color171c80 svgShape"></path><path fill="#175f80" d="M788.71 2613.25c-.25 4.32-.31 23.5 7.47 25.03 7.78 1.52 256.78 3.41 258.41 0 1.64-3.41 2.18-16.11 2.99-18.54.83-2.43-268.87-6.49-268.87-6.49zM923.38 2566.79c-5.95-6.73 7.26-22.38 11.12-21.3 3.86 1.08-5.25 27.94-11.12 21.3zM944.84 2573.73c-5.95-6.73 7.25-22.38 11.11-21.3 3.87 1.08-5.24 27.94-11.11 21.3zM967.2 2579.29c-5.95-6.73 7.25-22.38 11.11-21.3 3.86 1.08-5.25 27.94-11.11 21.3z" class="color171c80 svgShape"></path><path fill="#ffffff" d="M874.29 2574.66c0 11.76-9.54 21.3-21.3 21.3s-21.3-9.54-21.3-21.3 9.54-21.3 21.3-21.3 21.3 9.54 21.3 21.3z" class="colorffffff svgShape"></path><path fill="#114d68" d="M923.63 2424.37c-.48 18.2-2.61 57.15-4.71 57.05-2.1-.11-137.3 10.57-149.76-7.64-12.46-18.21-16.58-44.08-2.49-55.18 14.08-11.1 157.07 1.57 156.96 5.77z" class="color111968 svgShape"></path></g></g><g fill="#000000" class="color000000 svgShape"><path fill="#175f80" d="M1290.78 1875.56c-58.04 127.82-503.96 247.61-503.96 247.61l-41.94-114.48 237.77-216.6s-19.6-77.79-68.9-163.23c-96.23-38.83-117.79-152.86-135.11-302.87l365.4 1.6c.01 0 205.37 418.84 146.74 547.97z" class="color171c80 svgShape"></path><path fill="#114d68" d="M929.89 1343.29s34.86 122.61 35.93 134.37c1.07 11.76-21.39 27.13-41.7 38.85s-70.57-4.32-70.57-4.32-64.16-121.9-54.53-135.8c9.62-13.9 130.87-33.1 130.87-33.1zM797.57 2120.19c-1.01-2.93 57.64-25.79 131-51.05 73.36-25.26 133.65-43.37 134.66-40.44 1.01 2.93-57.64 25.79-131 51.05-73.36 25.26-133.65 43.37-134.66 40.44zM791.47 1969.83c-.53-.57 6.26-7.91 18.99-20.71s31.4-31.05 54.64-53.44c23.24-22.38 51.04-48.89 82.02-78.2 7.75-7.32 15.7-14.82 23.82-22.49 2.03-1.91 4.07-3.84 6.13-5.77l3.09-2.91.67-.63.02-.03.04-.05c.03-.03-.04-.08-.05-.11-.54-1.09-1.08-2.17-1.62-3.26-1.26-2.59-2.53-5.19-3.81-7.81-10.14-20.92-20.41-42.65-30.84-64.96-10.42-22.32-20.5-44.14-30.02-65.36-1.18-2.66-2.36-5.31-3.53-7.94l-.87-1.98-.43-.98-.01-.02c0-.02-.01-.04-.03-.05-.11-.05.3.11-.71-.28-5.57-2.18-10.93-4.74-15.98-7.68-5.04-2.95-9.81-6.2-14.3-9.68-4.5-3.46-8.66-7.23-12.61-11.07-7.87-7.72-14.67-16.02-20.67-24.43-3.02-4.2-5.77-8.48-8.42-12.71-2.59-4.27-5.07-8.51-7.35-12.76-9.16-16.97-15.98-33.55-21.4-48.9-5.42-15.35-9.4-29.52-12.49-42.03-3.07-12.52-5.22-23.41-6.72-32.35-2.98-17.88-3.45-27.94-2.7-28.03.78-.1 2.71 9.68 6.97 27.15 2.14 8.73 4.89 19.38 8.5 31.6 3.62 12.21 8.08 26.02 13.87 40.92 5.79 14.89 12.88 30.91 22.09 47.14 2.29 4.06 4.76 8.1 7.34 12.16 2.63 4.02 5.33 8.08 8.29 12.03 5.86 7.93 12.42 15.68 19.88 22.8 3.74 3.54 7.64 6.99 11.84 10.14 4.18 3.16 8.59 6.09 13.21 8.74 4.63 2.63 9.5 4.9 14.55 6.83l3.29 1.24.99.37c.31.15.74.16.8.57l.86 1.93c.73 1.62 1.46 3.25 2.19 4.89 1.18 2.61 2.37 5.23 3.56 7.87 9.61 21.07 19.76 42.85 30.16 65.13 10.42 22.28 20.61 44.03 30.58 64.94 1.25 2.61 2.5 5.21 3.74 7.79.72 1.49 1.45 2.98 2.17 4.46l1.86 3.79.93 1.89c.06.15.19.32.19.47l-.39.36-.77.72c-4.98 4.61-9.91 9.18-14.79 13.7-8.2 7.57-16.24 14.98-24.07 22.21-31.37 28.9-59.74 54.8-83.66 76.44-23.93 21.64-43.43 39.01-57.07 50.83-13.64 11.81-21.44 18.08-21.97 17.51z" class="color111968 svgShape"></path></g><g fill="#000000" class="color000000 svgShape"><path fill="#fcd593" d="m780.53 2102.79-130.81 42.62-16.97-59.29 112.13-77.43z" class="colorfca993 svgShape"></path><path fill="#0ea5e9" d="M676.62 2049.2c3.79-12.4-111.9 30.54-112.12 39.79-.21 9.25 68.09 218.92 83.44 235.09 15.35 16.17 54.44 3.61 49.64-30.72-4.8-34.33-16.94-105.58 1.39-135.02 0 0 29.11-26.19 30.46-32.55 1.34-6.35-61.91-46.82-52.81-76.59z" class="color1996f2 svgShape"></path><path fill="#175f80" d="M694.31 2271.2c-1.1.9-3.72-.93-7.92-2.17-4.25-1.24-10.51-1.43-17.73-.51-14.47 1.97-26.54 6.01-27.61 3.64-1.1-2.07 9.77-10.25 26.49-12.61 8.28-1.11 16.63.25 21.62 3.72 5 3.54 6 7.36 5.15 7.93z" class="color171c80 svgShape"></path><path fill="#175f80" d="M582.81 2077.05c-5.86-2.89-21.46 6.04-22.78 13.86-14.62 86.28 78.36 259.55 104.89 240.15 2.07-1.51-21.82-224.25-82.11-254.01zM671.38 2186.68c4.35-7.86 23.52-.65 23.79 3.35.27 4-28.09 4.4-23.79-3.35zM672.01 2209.23c4.35-7.86 23.52-.65 23.79 3.35.27 4-28.09 4.4-23.79-3.35zM674.25 2232.15c4.35-7.86 23.52-.65 23.79 3.35.27 4-28.09 4.4-23.79-3.35z" class="color171c80 svgShape"></path><path fill="#ffffff" d="M689.06 2143.88c-9.6 6.8-21.49 6.52-26.54-.62s-1.38-18.45 8.22-25.25c9.6-6.8 21.48-6.52 26.54.62s1.38 18.45-8.22 25.25z" class="colorffffff svgShape"></path><path fill="#114d68" d="M817.33 2126.95c-16.48 7.74-52.25 23.31-53.1 21.38-.85-1.93-71.04-117.96-60.36-137.27 10.68-19.3 31.96-34.59 48.2-26.98 16.24 7.61 69.06 141.09 65.26 142.87z" class="color111968 svgShape"></path></g></g><g fill="#000000" class="color000000 svgShape"><g fill="#000000" class="color000000 svgShape"><path fill="#fcd593" d="M799.5 543.39s44.11-55.57 57.9-50.96c13.8 4.61-37.63 65.03-37.63 65.03s40.32-47.08 49.56-37.46c9.24 9.62-31.98 57.03-43.65 72.29-7.58 9.9-9.11 15.61 3.53 12.29 12.64-3.32 30.95 3.69 29.37 13.31-1.58 9.62-54.46 6.78-66.14 17.33-2.03 1.83-71.29-14.74-57.24-59.37 7.56-24.02 39.81-83.79 48.32-75.11 6.34 6.46-2.18 20.02-6.94 26.53 9.68-12.28 41.27-50.94 48.64-42.26 8.74 10.29-25.72 58.38-25.72 58.38z" class="colorfca993 svgShape"></path><g fill="#000000" class="color000000 svgShape"><path fill="#d8af6a" d="M839.36 534.38c.98.78-4.51 9.28-12.26 18.97s-14.83 16.91-15.81 16.12c-.98-.78 4.51-9.28 12.26-18.97 7.75-9.68 14.83-16.9 15.81-16.12zM813.51 522.26c1.05.69-2.96 8.58-8.95 17.62-5.99 9.04-11.7 15.81-12.74 15.11-1.05-.69 2.96-8.58 8.95-17.63 5.98-9.02 11.69-15.79 12.74-15.1zM784.51 513.14c1.11.58-1.41 7.65-5.64 15.8-4.23 8.15-8.56 14.28-9.68 13.7s1.41-7.65 5.64-15.8c4.23-8.15 8.56-14.28 9.68-13.7z" class="colord8776a svgShape"></path></g></g><path fill="#0ea5e9" d="M896.82 810.67 712.1 851.24l80.35-216.02-58.5-41.42s-270.13 294.39-198.84 409.46 282.67 40.11 282.67 40.11l79.04-232.7z" class="color1996f2 svgShape"></path><path fill="#19aff2" d="m847.08 957.11-29.3 86.27s-211.39 74.95-282.68-40.12a72.626 72.626 0 0 1-6.24-12.7c196.46 75.88 313.3-106.23 313.3-106.23l4.92 72.78z" opacity=".5" class="color1965f2 svgShape"></path><path fill="#1193ce" d="M733.95 846.44c.15 1.43-6.67 3.12-17.25 6.26-10.57 3.15-24.94 8.05-39.42 16.18-14.57 7.98-26.28 17.58-34.34 25.02-8.08 7.46-12.56 12.7-13.73 12-1.18-.66 1.42-7.58 8.61-16.71 3.61-4.53 8.31-9.65 14.16-14.65 2.89-2.54 6.12-4.97 9.52-7.41 3.46-2.36 7.1-4.74 11.01-6.85 7.76-4.33 15.61-7.59 22.93-9.9 7.31-2.35 14.09-3.68 19.8-4.48 11.45-1.49 18.6-.72 18.71.54z" class="color115ace svgShape"></path></g><g fill="#000000" class="color000000 svgShape"><path fill="#0ea5e9" d="M1184.49 1366.15c-14.54 7.09-92.46 23.41-127.02 12.18-9.04-2.93-28.67-53.42-38.85-51.58-10.18 1.85-11.1 61.21-22.02 62.66-124.95 16.61-251.66 10.64-310.53-35.77 31.33-286.81 121.81-570.34 266.26-553.67 79.76 9.22 165.38 415.9 232.16 566.18z" class="color1996f2 svgShape"></path><path fill="#19aff2" d="M1184.49 1366.15c-14.54 7.09-92.46 23.41-127.02 12.18-7.68-2.5-23.01-39.33-33.68-49.21 10.55-.64 100.26 54.83 85.89 10.94-7.97-24.34-51.57-234.1-58.97-372.25 48.37 135.35 95.49 312.15 133.78 398.34z" opacity=".5" class="color1965f2 svgShape"></path><path fill="#1193ce" d="M797.54 919.11c.6.31-.24 3.5-2.27 8.98-1.01 2.74-2.33 6.05-3.9 9.86a701.31 701.31 0 0 1-5.09 13.07c-.94 2.42-2.03 4.9-3 7.57-1.01 2.65-2.05 5.4-3.13 8.26-1.1 2.84-2.23 5.79-3.4 8.82-1.11 3.05-2.26 6.19-3.44 9.42-1.18 3.22-2.4 6.51-3.64 9.88-1.19 3.39-2.41 6.85-3.65 10.37-2.55 7.01-4.96 14.36-7.54 21.85-10.15 30.01-18.48 57.48-24.7 77.34-6.18 19.87-10.16 32.15-11.49 31.86-1.32-.29.28-13.2 4.77-33.64 4.53-20.42 11.87-48.42 22.11-78.7 2.61-7.55 5.1-14.94 7.8-21.98 1.33-3.53 2.63-6.99 3.91-10.38 1.32-3.38 2.68-6.66 3.99-9.87 1.32-3.2 2.61-6.32 3.86-9.36l3.9-8.73c1.28-2.8 2.51-5.51 3.69-8.12 1.16-2.61 2.46-5.04 3.61-7.4 2.36-4.69 4.52-8.91 6.47-12.58 2.07-3.63 3.9-6.72 5.45-9.22 3.09-5.01 5.09-7.61 5.69-7.3zM938.57 1326.84c.04.34-.71.75-2.2 1.23-.74.24-1.67.49-2.77.76s-2.38.57-3.83.78c-5.79 1.04-14.29 1.81-24.81 1.68-10.52-.15-23.05-1.26-36.71-3.86-13.66-2.63-28.47-6.63-43.48-12.34-15.01-5.69-28.81-12.46-40.7-19.77-3-1.77-5.81-3.71-8.58-5.52-1.35-.96-2.68-1.91-3.99-2.84-.65-.47-1.3-.93-1.94-1.4-.63-.48-1.25-.97-1.86-1.44-1.23-.96-2.43-1.9-3.61-2.82-1.15-.97-2.27-1.93-3.38-2.86-.55-.47-1.09-.93-1.63-1.4-.52-.48-1.03-.96-1.54-1.44-1.01-.95-2-1.88-2.97-2.78-7.59-7.44-12.68-14.53-15.5-19.78-.69-1.33-1.27-2.51-1.76-3.55-.43-1.07-.74-2-.97-2.75-.46-1.51-.54-2.36-.23-2.51.3-.15.98.41 1.98 1.57.5.58 1.07 1.32 1.73 2.19.73.84 1.53 1.81 2.42 2.91 3.64 4.34 9.2 10.32 16.98 16.75.99.78 2 1.59 3.04 2.41.52.41 1.04.83 1.56 1.25.54.4 1.09.81 1.65 1.21 1.11.82 2.24 1.65 3.39 2.5 1.18.81 2.39 1.64 3.61 2.48.61.42 1.23.85 1.85 1.27.64.41 1.28.82 1.93 1.23 1.3.83 2.61 1.67 3.95 2.53 2.74 1.6 5.49 3.36 8.45 4.95 11.67 6.6 25.09 12.88 39.59 18.38 14.51 5.52 28.74 9.65 41.84 12.67 13.11 3 25.12 4.77 35.25 5.79 20.3 2.07 33.05 1 33.24 2.52zM823.25 1341.61c.19 1.26-4.51 3.38-12.7 4.16-4.08.33-9 .28-14.39-.48a76.355 76.355 0 0 1-17.08-4.5c-11.72-4.55-21-11.25-26.8-16.88-5.85-5.64-8.36-10.19-7.37-11.1 1-.93 5.07 1.68 11.61 5.6 6.52 3.93 15.55 9.12 26.11 13.22 5.27 2.06 10.43 3.61 15.2 4.76s9.15 1.88 12.88 2.43c7.45 1 12.34 1.38 12.54 2.79z" class="color115ace svgShape"></path></g><g fill="#000000" class="color000000 svgShape"><g fill="#000000" class="color000000 svgShape"><path fill="#fcd593" d="M998.82 764.26c-4.87 31.58-5.63 59.11-5.63 59.11l-87.62-29.43s8.29-39.98 12.37-83.25c44.89 26.32 80.88 53.57 80.88 53.57z" class="colorfca993 svgShape"></path><path fill="#19aff2" d="M995.5 834.3c2.73-14.44 11.25-12.64 3.4-21.33-7.85-8.69-68.67-34.47-96.26-23.07-9.2 3.8-12.18 13.15-15.17 21.48 68.13-1.4 108.03 22.92 108.03 22.92z" class="color1965f2 svgShape"></path></g><g fill="#000000" class="color000000 svgShape"><path fill="#fcd593" d="M1047.92 627.01c4.53 15.65-5.82 30.64-1.35 39.25 4.46 8.6 25.42 33.97 6.47 38.77-3.75 17.64-6.09 54.11-16.02 56.34-54.37 12.21-145.99-38.62-145.99-38.62.07-.28.14-.58.23-.89 2.37-8.92 18.02-206.46 137.92-134.96-.01 0 14.21 24.46 18.74 40.11z" class="colorfca993 svgShape"></path><path fill="#d8af6a" d="M1037.01 761.37c.12.48-.57 1.11-1.93 1.83-1.37.69-3.39 1.63-6.01 2.28-5.19 1.51-12.7 2.6-21 2.05-8.29-.51-15.65-2.43-20.63-4.65-5.01-2.16-7.67-4.48-7.21-5.37.45-.89 3.62-.32 8.67.49 5.03.86 11.93 1.86 19.6 2.34 7.67.51 14.66.28 19.79.11 2.58.02 4.67-.14 6.18.02 1.52.12 2.42.42 2.54.9z" class="colord8776a svgShape"></path><path fill="#072e3f" d="M1022.8 725.55c-2.01-9.1 30.94-4.9 24.16 6.32-6.78 11.23-22.58.84-24.16-6.32zM1032.82 640.67c12.19-.63 15.83 5.49 16.67 2.66.84-2.83.04-3.18-1.51-4.64-1.55-1.46-15.1-9.16-17.94-6.62-2.84 2.53-.33 8.76 2.78 8.6zM1028.95 662.34c.93 5.05 4.33 8.65 7.61 8.05 3.28-.6 5.18-5.18 4.26-10.23-.93-5.05-4.33-8.65-7.61-8.05-3.29.6-5.19 5.18-4.26 10.23z" class="color070e3f svgShape"></path><path fill="#ffffff" d="M1026.87 657.58c.45 1.67 2.18 2.66 3.86 2.21a3.155 3.155 0 0 0 2.21-3.86 3.144 3.144 0 0 0-3.85-2.21c-1.69.46-2.68 2.19-2.22 3.86z" class="colorffffff svgShape"></path></g><path fill="#072e3f" d="M1043.54 546.97c-20.12-13.66-41.94 3.53-41.94 3.53s-2.77-23.81-25.12-30.65-99-9.91-91.16 48.23c-46.67-13.44-85.41 61.54-45.06 76.4-33.17 73.32 41.69 119.47 59.26 124.8 17.56 5.34 53.55 3.54 57.46-1.91 3.91-5.46 19.59-43.31 21.48-61.34-17.65-21.68-22.17-45.55-4.49-49.23 2.53-.53 13.01 2.67 14.93 3.03 13.12 2.99 11.63 35.4 16.57 34.25 9.83-2.3 9.42-62.81 9.42-62.81s41.02-20.97 41.82-39.76c-.01 0 6.95-30.88-13.17-44.54z" class="color070e3f svgShape"></path><g fill="#000000" class="color000000 svgShape"><path fill="#eac27f" d="M989.2 666.06s-6.55-11.05-17.81-4.13c-12.3 7.56 2.58 39.67 12.97 39.24 10.52-.44 11.54-5.32 12.01-8.22 1.74-10.85-7.17-26.89-7.17-26.89z" class="colorea907f svgShape"></path><path fill="#072e3f" d="M977.27 669.9c4.27 2.12 12.95 10.44 9.9 18.63 0 0-.92-4.93-4.12-7.42l-7.16-1.74 6.48-1.74-5.1-7.73z" class="color070e3f svgShape"></path></g></g><g fill="#000000" class="color000000 svgShape"><g fill="#000000" class="color000000 svgShape"><g fill="#000000" class="color000000 svgShape"><path fill="#fcd593" d="M1294.74 902.26c3.49 16.22 78.47 59.45 78.47 59.45 16.16-25.52 46.37-82.29 46.37-82.29s22.42-30.35 29.09-24.39c22.83 20.39 21.3-36.52 21.3-36.52s-4.21-27.03-12.82-32.81c-8.6-5.77-14.97-1.62-14.97-1.62s2.58-9.41-7.18-15.99-19.29-1.65-19.29-1.65 54.17-40.24 44.15-53.38c-6.46-8.47-40.04 18.41-59.39 39.05-8.35 8.92-105.93 149.2-105.73 150.15z" class="colorfca993 svgShape"></path><path fill="#d8af6a" d="M1432.45 752.91c1.45 1.36-3.61 9.1-11.31 17.29-7.69 8.19-15.1 13.72-16.55 12.36-1.45-1.36 3.61-9.1 11.31-17.29 7.69-8.19 15.1-13.72 16.55-12.36zM1441.99 785.04c1.34 1.47.24 4.64-2.45 7.07s-5.94 3.22-7.28 1.74c-1.34-1.47-.24-4.64 2.45-7.07 2.69-2.44 5.95-3.22 7.28-1.74zM1468.2 820.1c-.82.61-2.24.03-3.66-.2a4.14 4.14 0 0 0-1.85.1c-.55.13-1.26.41-2.19.89-1.87.97-3.9 2.44-5.56 3.34-1.67.92-3.05 1.36-3.87.79-.82-.56-.85-2.14.04-4.15.45-1.01 1.13-2.12 2.11-3.23.98-1.11 2.24-2.24 3.96-3.14 1.7-.88 3.8-1.44 5.84-1.12 2.04.28 3.65 1.35 4.49 2.39.87 1.05 1.2 2.03 1.25 2.78.04.75-.16 1.27-.56 1.55z" class="colord8776a svgShape"></path></g></g><g fill="#000000" class="color000000 svgShape"><path fill="#0ea5e9" d="M1424.87 885.46s-157.21 238.24-240.17 276.44c-87.17 9.06-204.01-114.47-229.24-186.98-37.44-107.59 28.38-157.94 46.08-144.41 13.49 10.31 158.72 129.92 158.72 129.92l186.67-143.76 77.94 68.79z" class="color1996f2 svgShape"></path><path fill="#1193ce" d="M1184.69 1161.9c-.05.68-3.84.93-10.77.79-.43-.01-.88-.02-1.33-.04-.45-.04-.92-.09-1.39-.13-.95-.1-1.95-.2-3-.3-2.09-.24-4.37-.49-6.81-.77-2.43-.38-5-.91-7.75-1.43-1.37-.27-2.78-.55-4.23-.83-1.43-.37-2.89-.76-4.39-1.15-12.02-3.05-26.03-8.11-40.61-15.67-14.6-7.52-29.74-17.47-44.42-29.34a336.602 336.602 0 01-38.21-36.8c-10.79-12.2-19.73-23.83-26.69-33.96-13.96-20.24-20.33-34.17-19.15-34.82 1.19-.68 9.58 11.8 24.73 30.66 7.56 9.44 16.89 20.39 27.8 31.99 10.93 11.58 23.59 23.68 37.74 35.29 14.23 11.5 28.66 21.3 42.48 28.97 13.8 7.7 26.98 13.21 38.32 16.99 1.42.49 2.8.97 4.14 1.44l4 1.14c2.6.73 5.04 1.49 7.34 2.11 2.32.55 4.49 1.06 6.48 1.53 1 .25 1.95.48 2.86.71.46.12.9.23 1.33.34.44.08.86.17 1.28.25 6.61 1.31 10.3 2.35 10.25 3.03zM1160.26 960.43c1.31.74-.73 5.86-2.13 14.19-.74 4.15-1.32 9.11-1.41 14.65-.09 5.54.23 11.65 1.16 18.06.88 6.41 2.17 12.49 3.54 18.02 1.34 5.53 2.78 10.49 3.97 14.7 1.18 4.21 2.16 7.66 2.63 10.16.24 1.25.36 2.26.32 3.02-.02.74-.23 1.32-.58 1.32-.36 0-.71-.09-1.25-.56-.54-.45-1.21-1.19-1.98-2.21-1.55-2.03-3.53-5.12-5.6-9.16a106.69 106.69 0 01-6.2-14.72c-1.94-5.72-3.62-12.21-4.58-19.21-1.01-6.99-1.09-13.82-.46-19.98.63-6.16 2.05-11.64 3.77-15.99.8-2.2 1.83-4.08 2.67-5.72.97-1.59 1.83-2.94 2.65-3.96 1.69-2.04 2.89-2.94 3.48-2.61z" class="color115ace svgShape"></path></g></g></g></svg>