<svg width="381" height="518" viewBox="0 0 381 518" fill="none" xmlns="http://www.w3.org/2000/svg">
<g opacity="0.05">
<path d="M441.006 355.162C442.305 356.46 444.412 356.461 445.691 355.144C476.879 323.03 497.629 282.21 505.166 238.045C512.89 192.787 506.358 146.249 486.474 104.86C466.59 63.4715 434.335 29.2742 394.163 6.99247C353.992 -15.2892 307.888 -24.5556 262.22 -19.5266C216.551 -14.4976 173.573 4.57854 139.221 35.0667C104.869 65.5549 80.8399 105.95 70.4522 150.673C60.0645 195.395 63.8311 242.237 81.2319 284.729C98.2127 326.194 127.36 361.519 164.799 386.077C166.334 387.083 168.389 386.623 169.374 385.074V385.074C170.36 383.524 169.899 381.469 168.363 380.461C132.089 356.643 103.849 322.4 87.3904 282.21C70.5117 240.994 66.858 195.557 76.9341 152.176C87.0101 108.795 110.319 69.6118 143.64 40.0382C176.961 10.4647 218.65 -8.03918 262.948 -12.9173C307.247 -17.7954 351.968 -8.80702 390.934 12.8062C429.9 34.4195 461.188 67.5909 480.476 107.738C499.763 147.885 506.099 193.027 498.607 236.927C491.301 279.733 471.201 319.299 440.988 350.439C439.708 351.758 439.706 353.863 441.006 355.162V355.162Z" fill="#F7F9FC"/>
<path d="M446.781 348.49C447.971 349.684 449.906 349.684 451.078 348.473C485.403 313.007 505.693 266.184 508.085 216.752C510.526 166.301 494.148 116.746 462.142 77.7401C430.136 38.7345 384.794 13.0722 334.95 5.75274C285.106 -1.56671 234.329 9.98087 192.512 38.1459C150.694 66.3108 120.832 109.076 108.741 158.11C96.6506 207.144 103.198 258.935 127.109 303.393C151.019 347.851 190.58 381.793 238.083 398.605C284.63 415.078 335.536 413.949 381.264 395.497C382.823 394.868 383.552 393.082 382.902 391.531V391.531C382.251 389.976 380.461 389.248 378.898 389.878C334.566 407.739 285.226 408.821 240.108 392.853C194.029 376.546 155.656 343.623 132.463 300.498C109.27 257.374 102.918 207.137 114.646 159.574C126.374 112.011 155.34 70.5285 195.903 43.2085C236.466 15.8885 285.72 4.68733 334.068 11.7872C382.417 18.8871 426.399 43.7795 457.445 81.615C488.49 119.45 504.377 167.519 502.009 216.457C499.69 264.38 480.029 309.776 446.765 344.172C445.598 345.379 445.596 347.302 446.781 348.49V348.49Z" fill="#F7F9FC"/>
<path d="M450.611 338.979C451.723 340.087 453.524 340.088 454.619 338.963C481.878 310.958 499.825 275.227 505.97 236.637C512.264 197.113 505.855 156.617 487.662 120.946C469.468 85.2743 440.423 56.2569 404.683 38.0472C368.944 19.8376 328.343 13.3695 288.692 19.5687C249.041 25.768 212.374 44.3168 183.939 72.5598C155.505 100.803 136.761 137.292 130.39 176.804C124.02 216.316 130.35 256.824 148.474 292.53C166.17 327.394 194.224 355.933 228.773 374.276C230.159 375.012 231.873 374.459 232.591 373.064V373.064C233.312 371.665 232.758 369.947 231.367 369.208C197.895 351.414 170.714 323.75 153.564 289.962C135.984 255.326 129.844 216.033 136.023 177.707C142.202 139.38 160.384 103.986 187.966 76.5901C215.547 49.1943 251.114 31.202 289.576 25.1887C328.037 19.1754 367.42 25.4495 402.087 43.1129C436.755 60.7762 464.929 88.9231 482.576 123.524C500.224 158.126 506.44 197.407 500.335 235.745C494.38 273.144 476.998 307.774 450.596 334.929C449.497 336.059 449.495 337.866 450.611 338.979V338.979Z" fill="#F7F9FC"/>
<path d="M480.747 305.454C482.053 306.007 483.561 305.395 484.093 304.08C497.429 271.118 500.186 234.795 491.944 200.16C483.504 164.692 463.97 132.846 436.187 109.263C408.405 85.6804 373.826 71.5914 337.486 69.0486C302.001 66.5655 266.647 75.219 236.334 93.7697C235.125 94.5099 234.768 96.0979 235.525 97.2965V97.2965C236.282 98.4954 237.868 98.8504 239.078 98.1106C268.466 80.1445 302.733 71.7651 337.128 74.1719C372.378 76.6384 405.92 90.3047 432.868 113.18C459.817 136.056 478.765 166.946 486.952 201.35C494.941 234.922 492.277 270.129 479.365 302.084C478.834 303.398 479.442 304.903 480.747 305.454V305.454Z" fill="#F7F9FC"/>
<path d="M215.382 112.256C214.455 111.183 212.832 111.064 211.774 112.008C199.796 122.689 189.38 135.004 180.831 148.59C180.076 149.789 180.461 151.369 181.67 152.107V152.107C182.881 152.845 184.459 152.459 185.215 151.259C193.487 138.129 203.557 126.224 215.131 115.892C216.189 114.948 216.309 113.329 215.382 112.256V112.256Z" fill="#F7F9FC"/>
<path d="M466.865 323.219C468.079 323.733 469.481 323.164 469.976 321.942C478.593 300.642 482.504 277.719 481.428 254.746C480.315 230.977 473.891 207.761 462.63 186.805C451.369 165.849 435.557 147.687 416.357 133.655C397.8 120.092 376.535 110.722 354.031 106.177C352.738 105.916 351.491 106.773 351.25 108.07V108.07C351.009 109.366 351.863 110.61 353.154 110.871C374.959 115.285 395.562 124.369 413.544 137.511C432.167 151.122 447.505 168.739 458.429 189.067C469.352 209.394 475.583 231.914 476.663 254.969C477.705 277.23 473.921 299.443 465.58 320.086C465.086 321.307 465.652 322.706 466.865 323.219V323.219Z" fill="#F7F9FC"/>
<path d="M441.952 355.819C443.256 357.322 445.533 357.484 447.014 356.157C475.488 330.644 497.474 298.678 511.119 262.911C525.192 226.022 529.959 186.228 524.997 147.054C520.034 107.88 505.496 70.536 482.67 38.3292C459.844 6.12238 429.434 -19.9529 394.134 -37.587C358.834 -55.221 319.734 -63.8695 280.298 -62.7663C240.861 -61.6632 202.305 -50.8424 168.044 -31.2626C133.784 -11.6828 104.876 16.0518 83.8829 49.4844C63.5278 81.9005 51.2217 118.703 47.9686 156.817C47.7995 158.797 49.2969 160.519 51.2798 160.658V160.658C53.262 160.798 54.9786 159.304 55.1485 157.324C58.3178 120.392 70.2508 84.7312 89.9764 53.3175C110.34 20.8879 138.38 -6.01459 171.613 -25.007C204.846 -43.9995 242.245 -54.4956 280.499 -55.5657C318.752 -56.6357 356.679 -48.2467 390.92 -31.1417C425.161 -14.0366 454.658 11.2564 476.8 42.497C498.941 73.7376 513.043 109.962 517.857 147.96C522.67 185.959 518.047 224.559 504.395 260.342C491.172 295.003 469.872 325.985 442.29 350.722C440.811 352.048 440.65 354.318 441.952 355.819V355.819Z" fill="#F7F9FC"/>
<path d="M448.698 349.736C449.928 350.749 451.749 350.572 452.742 349.325C469.165 328.712 481.185 304.931 488.047 279.455C495.158 253.05 496.563 225.43 492.168 198.438C487.773 171.445 477.678 145.701 462.558 122.922C447.437 100.143 427.638 80.8524 404.48 66.3368C381.323 51.8211 355.339 42.4141 328.262 38.7429C301.186 35.0718 273.638 37.221 247.457 45.0471C221.276 52.8733 197.062 66.1966 176.432 84.1284C156.527 101.43 140.398 122.637 129.039 146.426C128.353 147.864 128.988 149.577 130.434 150.242V150.242C131.882 150.908 133.593 150.272 134.281 148.834C145.297 125.791 160.927 105.249 180.213 88.4861C200.224 71.0922 223.711 58.1686 249.107 50.5772C274.503 42.9859 301.224 40.9012 327.488 44.4622C353.753 48.0231 378.957 57.148 401.42 71.2282C423.882 85.3083 443.088 104.02 457.755 126.116C472.422 148.212 482.214 173.183 486.477 199.366C490.74 225.548 489.378 252.34 482.479 277.953C475.831 302.638 464.189 325.682 448.286 345.662C447.294 346.908 447.468 348.724 448.698 349.736V349.736Z" fill="#F7F9FC"/>
</g>
<g opacity="0.05">
<path d="M240.6 140.262C239.401 139.475 237.789 139.807 237.018 141.016C218.196 170.523 208.748 205.041 209.949 240.03C211.181 275.884 223.535 310.463 245.305 338.99C267.075 367.518 297.187 388.586 331.481 399.285C365.775 409.983 402.558 409.784 436.749 398.714C470.941 387.644 500.853 366.251 522.353 337.489C543.854 308.726 555.882 274.015 556.776 238.15C557.67 202.284 547.385 167.035 527.344 137.271C507.785 108.225 479.875 85.8015 447.313 72.9301C445.98 72.403 444.48 73.0794 443.971 74.4196V74.4196C443.46 75.763 444.138 77.264 445.474 77.793C477.025 90.2835 504.067 112.021 523.023 140.172C542.464 169.043 552.44 203.235 551.573 238.024C550.706 272.814 539.038 306.484 518.183 334.383C497.327 362.282 468.313 383.034 435.147 393.772C401.981 404.509 366.302 404.703 333.037 394.325C299.772 383.948 270.563 363.512 249.446 335.84C228.329 308.168 216.346 274.626 215.151 239.848C213.986 205.938 223.135 172.484 241.361 143.878C242.133 142.665 241.802 141.051 240.6 140.262V140.262Z" fill="#F7F9FC"/>
<path d="M237.23 146.28C236.131 145.556 234.65 145.861 233.944 146.972C213.25 179.54 205.101 218.579 211.077 256.785C217.175 295.777 237.549 331.109 268.229 355.896C298.909 380.683 337.698 393.15 377.039 390.87C416.38 388.589 453.455 371.723 481.042 343.559C508.629 315.394 524.751 277.947 526.269 238.513C527.786 199.079 514.589 160.483 489.25 130.243C463.911 100.003 428.243 80.2861 389.196 74.9326C350.935 69.6871 312.115 78.6004 279.999 99.951C278.904 100.679 278.628 102.162 279.371 103.247V103.247C280.115 104.333 281.599 104.607 282.696 103.879C313.837 83.1996 351.466 74.5689 388.553 79.6537C426.429 84.8465 461.026 103.972 485.606 133.305C510.185 162.637 522.986 200.075 521.514 238.326C520.042 276.577 504.403 312.901 477.644 340.221C450.885 367.541 414.922 383.9 376.761 386.113C338.601 388.325 300.975 376.231 271.216 352.188C241.456 328.144 221.693 293.873 215.778 256.05C209.985 219.012 217.876 181.166 237.925 149.586C238.629 148.477 238.327 147.003 237.23 146.28V146.28Z" fill="#F7F9FC"/>
<path d="M235.798 154.165C234.772 153.493 233.394 153.777 232.734 154.81C216.273 180.551 208.168 210.732 209.556 241.234C210.977 272.474 222.283 302.45 241.855 326.869C261.427 351.289 288.261 368.901 318.517 377.184C348.772 385.467 380.898 383.997 410.294 372.983C439.691 361.969 464.851 341.977 482.173 315.869C499.496 289.76 508.092 258.874 506.731 227.631C505.37 196.388 494.123 166.391 474.598 141.934C455.534 118.053 429.534 100.649 400.168 92.0769C398.991 91.7334 397.768 92.4262 397.438 93.6066V93.6066C397.107 94.7925 397.803 96.0203 398.985 96.366C427.438 104.689 452.629 121.561 471.105 144.705C490.043 168.428 500.953 197.526 502.273 227.831C503.593 258.136 495.255 288.096 478.452 313.422C461.65 338.747 437.244 358.139 408.73 368.822C380.215 379.506 349.053 380.932 319.705 372.897C290.357 364.863 264.328 347.779 245.343 324.092C226.359 300.405 215.392 271.329 214.013 241.026C212.669 211.467 220.514 182.219 236.45 157.265C237.114 156.226 236.83 154.841 235.798 154.165V154.165Z" fill="#F7F9FC"/>
<path d="M218.007 184.585C216.92 184.369 215.862 185.075 215.663 186.165C210.652 213.497 214.278 241.729 226.062 266.929C238.13 292.736 258.125 314.016 283.133 327.669C308.142 341.322 336.858 346.636 365.098 342.835C392.676 339.124 418.393 326.912 438.685 307.923C439.494 307.165 439.516 305.894 438.747 305.096V305.096C437.977 304.299 436.708 304.277 435.898 305.034C416.222 323.43 391.293 335.261 364.563 338.858C337.17 342.545 309.315 337.391 285.057 324.147C260.799 310.903 241.404 290.262 229.698 265.229C218.276 240.803 214.756 213.441 219.6 186.948C219.799 185.857 219.095 184.801 218.007 184.585V184.585Z" fill="#F7F9FC"/>
<path d="M225.836 168.795C224.826 168.595 223.842 169.251 223.657 170.264C220.419 187.926 221.044 206.086 225.497 223.496C230.104 241.508 238.692 258.258 250.629 272.514C262.566 286.769 277.548 298.167 294.473 305.869C310.831 313.313 328.603 317.121 346.562 317.04C347.592 317.035 348.411 316.183 348.391 315.153V315.153C348.371 314.122 347.519 313.305 346.489 313.309C329.088 313.38 311.87 309.686 296.019 302.473C279.602 295.002 265.069 283.946 253.49 270.119C241.911 256.291 233.581 240.043 229.112 222.571C224.797 205.702 224.188 188.106 227.317 170.992C227.502 169.978 226.847 168.996 225.836 168.795V168.795Z" fill="#F7F9FC"/>
<path d="M239.772 139.909C238.536 138.966 236.768 139.202 235.844 140.451C218.06 164.477 206.265 192.415 201.461 221.943C196.506 252.397 199.14 283.602 209.129 312.794C219.118 341.986 236.154 368.264 258.728 389.3C281.302 410.336 308.717 425.481 338.545 433.393C368.372 441.305 399.692 441.741 429.729 434.661C459.767 427.58 487.595 413.203 510.749 392.803C533.902 372.402 551.667 346.608 562.469 317.705C572.943 289.681 576.557 259.574 573.03 229.895C572.846 228.351 571.428 227.27 569.887 227.477V227.477C568.346 227.683 567.266 229.1 567.449 230.644C570.854 259.405 567.345 288.579 557.196 315.736C546.718 343.772 529.486 368.792 507.027 388.58C484.568 408.369 457.574 422.315 428.438 429.182C399.302 436.05 368.922 435.628 339.989 427.953C311.056 420.278 284.463 405.588 262.567 385.183C240.67 364.778 224.145 339.288 214.456 310.972C204.767 282.656 202.212 252.387 207.018 222.846C211.673 194.232 223.096 167.157 240.318 143.868C241.242 142.617 241.007 140.852 239.772 139.909V139.909Z" fill="#F7F9FC"/>
<path d="M235.566 145.631C234.464 145.051 233.098 145.473 232.535 146.584C223.209 164.955 217.756 185.054 216.523 205.635C215.246 226.966 218.532 248.323 226.163 268.283C233.793 288.243 245.593 306.347 260.774 321.387C275.956 336.428 294.171 348.058 314.204 355.504C334.237 362.95 355.629 366.04 376.951 364.568C398.274 363.095 419.038 357.095 437.859 346.966C456.68 336.837 473.125 322.813 486.097 305.829C498.613 289.443 507.619 270.664 512.564 250.665C512.863 249.456 512.105 248.244 510.891 247.964V247.964C509.678 247.683 508.468 248.44 508.169 249.648C503.369 269.023 494.639 287.215 482.513 303.092C469.929 319.567 453.978 333.17 435.722 342.995C417.465 352.82 397.324 358.641 376.641 360.069C355.958 361.497 335.208 358.5 315.776 351.277C296.344 344.055 278.676 332.773 263.949 318.184C249.223 303.595 237.778 286.034 230.376 266.673C222.974 247.312 219.787 226.595 221.026 205.904C222.22 185.963 227.499 166.489 236.526 148.685C237.089 147.574 236.668 146.211 235.566 145.631V145.631Z" fill="#F7F9FC"/>
</g>
</svg>
