<svg width="310" height="90" viewBox="0 0 310 90" fill="none" xmlns="http://www.w3.org/2000/svg">
<path d="M117.48 18.6C119.107 18.9466 120.413 19.76 121.4 21.04C122.387 22.2933 122.88 23.7333 122.88 25.36C122.88 27.7066 122.053 29.5733 120.4 30.96C118.773 32.32 116.493 33 113.56 33H100.48V4.91996H113.12C115.973 4.91996 118.2 5.5733 119.8 6.87996C121.427 8.18663 122.24 9.95996 122.24 12.2C122.24 13.8533 121.8 15.2266 120.92 16.32C120.067 17.4133 118.92 18.1733 117.48 18.6ZM107.32 16.28H111.8C112.92 16.28 113.773 16.04 114.36 15.56C114.973 15.0533 115.28 14.32 115.28 13.36C115.28 12.4 114.973 11.6666 114.36 11.16C113.773 10.6533 112.92 10.4 111.8 10.4H107.32V16.28ZM112.36 27.48C113.507 27.48 114.387 27.2266 115 26.72C115.64 26.1866 115.96 25.4266 115.96 24.44C115.96 23.4533 115.627 22.68 114.96 22.12C114.32 21.56 113.427 21.28 112.28 21.28H107.32V27.48H112.36Z" fill="#0EA5E9"/>
<path d="M148.887 10.68V33H142.047V29.96C141.354 30.9466 140.407 31.7466 139.207 32.36C138.034 32.9466 136.727 33.24 135.287 33.24C133.581 33.24 132.074 32.8666 130.767 32.12C129.461 31.3466 128.447 30.24 127.727 28.8C127.007 27.36 126.647 25.6666 126.647 23.72V10.68H133.447V22.8C133.447 24.2933 133.834 25.4533 134.607 26.28C135.381 27.1066 136.421 27.52 137.727 27.52C139.061 27.52 140.114 27.1066 140.887 26.28C141.661 25.4533 142.047 24.2933 142.047 22.8V10.68H148.887Z" fill="#0EA5E9"/>
<path d="M152.44 21.8C152.44 19.5066 152.867 17.4933 153.72 15.76C154.6 14.0266 155.787 12.6933 157.28 11.76C158.774 10.8266 160.44 10.36 162.28 10.36C163.747 10.36 165.08 10.6666 166.28 11.28C167.507 11.8933 168.467 12.72 169.16 13.76V3.39996H176V33H169.16V29.8C168.52 30.8666 167.6 31.72 166.4 32.36C165.227 33 163.854 33.32 162.28 33.32C160.44 33.32 158.774 32.8533 157.28 31.92C155.787 30.96 154.6 29.6133 153.72 27.88C152.867 26.12 152.44 24.0933 152.44 21.8ZM169.16 21.84C169.16 20.1333 168.68 18.7866 167.72 17.8C166.787 16.8133 165.64 16.32 164.28 16.32C162.92 16.32 161.76 16.8133 160.8 17.8C159.867 18.76 159.4 20.0933 159.4 21.8C159.4 23.5066 159.867 24.8666 160.8 25.88C161.76 26.8666 162.92 27.36 164.28 27.36C165.64 27.36 166.787 26.8666 167.72 25.88C168.68 24.8933 169.16 23.5466 169.16 21.84Z" fill="#0EA5E9"/>
<path d="M189.429 10.36C191.002 10.36 192.375 10.68 193.549 11.32C194.749 11.96 195.669 12.8 196.309 13.84V10.68H203.149V32.96C203.149 35.0133 202.735 36.8666 201.909 38.52C201.109 40.2 199.869 41.5333 198.189 42.52C196.535 43.5066 194.469 44 191.989 44C188.682 44 186.002 43.2133 183.949 41.64C181.895 40.0933 180.722 37.9866 180.429 35.32H187.189C187.402 36.1733 187.909 36.84 188.709 37.32C189.509 37.8266 190.495 38.08 191.669 38.08C193.082 38.08 194.202 37.6666 195.029 36.84C195.882 36.04 196.309 34.7466 196.309 32.96V29.8C195.642 30.84 194.722 31.6933 193.549 32.36C192.375 33 191.002 33.32 189.429 33.32C187.589 33.32 185.922 32.8533 184.429 31.92C182.935 30.96 181.749 29.6133 180.869 27.88C180.015 26.12 179.589 24.0933 179.589 21.8C179.589 19.5066 180.015 17.4933 180.869 15.76C181.749 14.0266 182.935 12.6933 184.429 11.76C185.922 10.8266 187.589 10.36 189.429 10.36ZM196.309 21.84C196.309 20.1333 195.829 18.7866 194.869 17.8C193.935 16.8133 192.789 16.32 191.429 16.32C190.069 16.32 188.909 16.8133 187.949 17.8C187.015 18.76 186.549 20.0933 186.549 21.8C186.549 23.5066 187.015 24.8666 187.949 25.88C188.909 26.8666 190.069 27.36 191.429 27.36C192.789 27.36 193.935 26.8666 194.869 25.88C195.829 24.8933 196.309 23.5466 196.309 21.84Z" fill="#0EA5E9"/>
<path d="M229.137 21.48C229.137 22.12 229.097 22.7866 229.017 23.48H213.537C213.644 24.8666 214.084 25.9333 214.857 26.68C215.657 27.4 216.631 27.76 217.777 27.76C219.484 27.76 220.671 27.04 221.337 25.6H228.617C228.244 27.0666 227.564 28.3866 226.577 29.56C225.617 30.7333 224.404 31.6533 222.937 32.32C221.471 32.9866 219.831 33.32 218.017 33.32C215.831 33.32 213.884 32.8533 212.177 31.92C210.471 30.9866 209.137 29.6533 208.177 27.92C207.217 26.1866 206.737 24.16 206.737 21.84C206.737 19.52 207.204 17.4933 208.137 15.76C209.097 14.0266 210.431 12.6933 212.137 11.76C213.844 10.8266 215.804 10.36 218.017 10.36C220.177 10.36 222.097 10.8133 223.777 11.72C225.457 12.6266 226.764 13.92 227.697 15.6C228.657 17.28 229.137 19.24 229.137 21.48ZM222.137 19.68C222.137 18.5066 221.737 17.5733 220.937 16.88C220.137 16.1866 219.137 15.84 217.937 15.84C216.791 15.84 215.817 16.1733 215.017 16.84C214.244 17.5066 213.764 18.4533 213.577 19.68H222.137Z" fill="#0EA5E9"/>
<path d="M245.186 27.2V33H241.706C239.226 33 237.292 32.4 235.906 31.2C234.519 29.9733 233.826 27.9866 233.826 25.24V16.36H231.106V10.68H233.826V5.23996H240.666V10.68H245.146V16.36H240.666V25.32C240.666 25.9866 240.826 26.4666 241.146 26.76C241.466 27.0533 241.999 27.2 242.746 27.2H245.186Z" fill="#0EA5E9"/>
<path d="M252.436 8.35996C251.236 8.35996 250.249 8.01329 249.476 7.31996C248.729 6.59996 248.356 5.71996 248.356 4.67996C248.356 3.6133 248.729 2.7333 249.476 2.03996C250.249 1.31996 251.236 0.959961 252.436 0.959961C253.609 0.959961 254.569 1.31996 255.316 2.03996C256.089 2.7333 256.476 3.6133 256.476 4.67996C256.476 5.71996 256.089 6.59996 255.316 7.31996C254.569 8.01329 253.609 8.35996 252.436 8.35996ZM255.836 10.68V33H248.996V10.68H255.836Z" fill="#0EA5E9"/>
<path d="M274.393 10.44C277.006 10.44 279.086 11.2933 280.632 13C282.206 14.68 282.992 17 282.992 19.96V33H276.192V20.88C276.192 19.3866 275.806 18.2266 275.033 17.4C274.259 16.5733 273.219 16.16 271.912 16.16C270.606 16.16 269.566 16.5733 268.792 17.4C268.019 18.2266 267.632 19.3866 267.632 20.88V33H260.792V10.68H267.632V13.64C268.326 12.6533 269.259 11.88 270.432 11.32C271.606 10.7333 272.926 10.44 274.393 10.44Z" fill="#0EA5E9"/>
<path d="M296.226 10.36C297.799 10.36 299.172 10.68 300.346 11.32C301.546 11.96 302.466 12.8 303.106 13.84V10.68H309.946V32.96C309.946 35.0133 309.532 36.8666 308.706 38.52C307.906 40.2 306.666 41.5333 304.986 42.52C303.332 43.5066 301.266 44 298.786 44C295.479 44 292.799 43.2133 290.746 41.64C288.692 40.0933 287.519 37.9866 287.226 35.32H293.986C294.199 36.1733 294.706 36.84 295.506 37.32C296.306 37.8266 297.292 38.08 298.466 38.08C299.879 38.08 300.999 37.6666 301.826 36.84C302.679 36.04 303.106 34.7466 303.106 32.96V29.8C302.439 30.84 301.519 31.6933 300.346 32.36C299.172 33 297.799 33.32 296.226 33.32C294.386 33.32 292.719 32.8533 291.226 31.92C289.732 30.96 288.546 29.6133 287.666 27.88C286.812 26.12 286.386 24.0933 286.386 21.8C286.386 19.5066 286.812 17.4933 287.666 15.76C288.546 14.0266 289.732 12.6933 291.226 11.76C292.719 10.8266 294.386 10.36 296.226 10.36ZM303.106 21.84C303.106 20.1333 302.626 18.7866 301.666 17.8C300.732 16.8133 299.586 16.32 298.226 16.32C296.866 16.32 295.706 16.8133 294.746 17.8C293.812 18.76 293.346 20.0933 293.346 21.8C293.346 23.5066 293.812 24.8666 294.746 25.88C295.706 26.8666 296.866 27.36 298.226 27.36C299.586 27.36 300.732 26.8666 301.666 25.88C302.626 24.8933 303.106 23.5466 303.106 21.84Z" fill="#0EA5E9"/>
<path d="M117.48 64.5C119.107 64.8467 120.413 65.66 121.4 66.94C122.387 68.1933 122.88 69.6333 122.88 71.26C122.88 73.6067 122.053 75.4733 120.4 76.86C118.773 78.22 116.493 78.9 113.56 78.9H100.48V50.82H113.12C115.973 50.82 118.2 51.4733 119.8 52.78C121.427 54.0867 122.24 55.86 122.24 58.1C122.24 59.7533 121.8 61.1267 120.92 62.22C120.067 63.3133 118.92 64.0733 117.48 64.5ZM107.32 62.18H111.8C112.92 62.18 113.773 61.94 114.36 61.46C114.973 60.9533 115.28 60.22 115.28 59.26C115.28 58.3 114.973 57.5667 114.36 57.06C113.773 56.5533 112.92 56.3 111.8 56.3H107.32V62.18ZM112.36 73.38C113.507 73.38 114.387 73.1267 115 72.62C115.64 72.0867 115.96 71.3267 115.96 70.34C115.96 69.3533 115.627 68.58 114.96 68.02C114.32 67.46 113.427 67.18 112.28 67.18H107.32V73.38H112.36Z" fill="#F59E0B"/>
<path d="M148.887 56.58V78.9H142.047V75.86C141.354 76.8467 140.407 77.6467 139.207 78.26C138.034 78.8467 136.727 79.14 135.287 79.14C133.581 79.14 132.074 78.7667 130.767 78.02C129.461 77.2467 128.447 76.14 127.727 74.7C127.007 73.26 126.647 71.5667 126.647 69.62V56.58H133.447V68.7C133.447 70.1933 133.834 71.3533 134.607 72.18C135.381 73.0067 136.421 73.42 137.727 73.42C139.061 73.42 140.114 73.0067 140.887 72.18C141.661 71.3533 142.047 70.1933 142.047 68.7V56.58H148.887Z" fill="#F59E0B"/>
<path d="M152.44 67.7C152.44 65.4067 152.867 63.3933 153.72 61.66C154.6 59.9267 155.787 58.5933 157.28 57.66C158.774 56.7267 160.44 56.26 162.28 56.26C163.747 56.26 165.08 56.5667 166.28 57.18C167.507 57.7933 168.467 58.62 169.16 59.66V49.3H176V78.9H169.16V75.7C168.52 76.7667 167.6 77.62 166.4 78.26C165.227 78.9 163.854 79.22 162.28 79.22C160.44 79.22 158.774 78.7533 157.28 77.82C155.787 76.86 154.6 75.5133 153.72 73.78C152.867 72.02 152.44 69.9933 152.44 67.7ZM169.16 67.74C169.16 66.0333 168.68 64.6867 167.72 63.7C166.787 62.7133 165.64 62.22 164.28 62.22C162.92 62.22 161.76 62.7133 160.8 63.7C159.867 64.66 159.4 65.9933 159.4 67.7C159.4 69.4067 159.867 70.7667 160.8 71.78C161.76 72.7667 162.92 73.26 164.28 73.26C165.64 73.26 166.787 72.7667 167.72 71.78C168.68 70.7933 169.16 69.4467 169.16 67.74Z" fill="#F59E0B"/>
<path d="M179.589 67.7C179.589 65.4067 180.015 63.3933 180.869 61.66C181.749 59.9267 182.935 58.5933 184.429 57.66C185.922 56.7267 187.589 56.26 189.429 56.26C190.895 56.26 192.229 56.5667 193.429 57.18C194.655 57.7933 195.615 58.62 196.309 59.66V49.3H203.149V78.9H196.309V75.7C195.669 76.7667 194.749 77.62 193.549 78.26C192.375 78.9 191.002 79.22 189.429 79.22C187.589 79.22 185.922 78.7533 184.429 77.82C182.935 76.86 181.749 75.5133 180.869 73.78C180.015 72.02 179.589 69.9933 179.589 67.7ZM196.309 67.74C196.309 66.0333 195.829 64.6867 194.869 63.7C193.935 62.7133 192.789 62.22 191.429 62.22C190.069 62.22 188.909 62.7133 187.949 63.7C187.015 64.66 186.549 65.9933 186.549 67.7C186.549 69.4067 187.015 70.7667 187.949 71.78C188.909 72.7667 190.069 73.26 191.429 73.26C192.789 73.26 193.935 72.7667 194.869 71.78C195.829 70.7933 196.309 69.4467 196.309 67.74Z" fill="#F59E0B"/>
<path d="M230.897 56.58L223.897 73.04L216.897 89.5H209.537L214.657 78.14L205.577 56.58H213.217L218.377 70.54L223.497 56.58H230.897Z" fill="#F59E0B"/>
<path d="M41.8439 86.4181C64.9536 86.4181 83.6877 68.33 83.6877 46.0172C83.6877 23.7043 64.9536 5.61621 41.8439 5.61621C18.7341 5.61621 0 23.7043 0 46.0172C0 68.33 18.7341 86.4181 41.8439 86.4181Z" fill="#0EA5E9"/>
<path d="M80.0724 54.0972C80.315 54.0945 80.5553 54.1428 80.7767 54.2388C80.998 54.3347 81.1952 54.4759 81.3544 54.6527C81.5136 54.8295 81.6311 55.0376 81.6987 55.2626C81.7664 55.4875 81.7826 55.724 81.7461 55.9556C80.9093 61.329 79.7125 68.9971 79.7376 68.8839C79.6771 69.2693 79.4744 69.6205 79.1668 69.873C78.8592 70.1254 78.4675 70.262 78.0639 70.2576H74.3063C68.9587 79.5417 56.1628 86.1432 41.1241 86.418C33.0698 86.2851 25.2265 83.9103 18.5358 79.5788C11.8452 75.2474 6.59165 69.1433 3.40609 61.9996C3.3475 61.5229 3.3475 61.0462 3.3475 60.5613C3.3475 42.6233 29.1735 29.6627 53.8279 36.547C54.8959 34.9871 56.3477 33.707 58.0535 32.8215C59.7593 31.936 61.6659 31.4725 63.6026 31.4727C64.0466 31.4727 64.4723 31.6429 64.7862 31.946C65.1001 32.249 65.2764 32.6601 65.2764 33.0887V41.6537C70.2977 44.9585 74.0469 49.2491 75.821 54.0972H80.0724Z" fill="#FFA84E"/>
<path d="M51.8864 45.2091H23.4325C22.9886 45.2091 22.5629 45.0389 22.249 44.7358C21.9351 44.4327 21.7588 44.0217 21.7588 43.5931C21.7588 43.1645 21.9351 42.7534 22.249 42.4504C22.5629 42.1473 22.9886 41.9771 23.4325 41.9771H51.8864C52.3303 41.9771 52.756 42.1473 53.0699 42.4504C53.3838 42.7534 53.5601 43.1645 53.5601 43.5931C53.5601 44.0217 53.3838 44.4327 53.0699 44.7358C52.756 45.0389 52.3303 45.2091 51.8864 45.2091ZM66.1133 54.0973C65.6701 54.0955 65.2457 53.9241 64.9333 53.6206C64.5791 53.2821 64.101 53.0922 63.6026 53.0922C63.1043 53.0922 62.6261 53.2821 62.272 53.6206C61.9518 53.8854 61.5399 54.0237 61.1187 54.008C60.6975 53.9923 60.2979 53.8237 59.9998 53.5359C59.7017 53.2481 59.5271 52.8623 59.5108 52.4555C59.4945 52.0488 59.6378 51.6511 59.912 51.342C60.3963 50.8734 60.9716 50.5016 61.6048 50.248C62.2381 49.9943 62.917 49.8638 63.6026 49.8638C64.2883 49.8638 64.9672 49.9943 65.6004 50.248C66.2337 50.5016 66.809 50.8734 67.2933 51.342C67.5259 51.568 67.6842 51.8553 67.7482 52.1679C67.8122 52.4805 67.7791 52.8044 67.653 53.0988C67.5269 53.3933 67.3134 53.6452 67.0395 53.8228C66.7655 54.0005 66.4433 54.096 66.1133 54.0973Z" fill="#D48432"/>
<path d="M14.2269 31.6747H12.5532V27.6346C12.5532 27.206 12.3768 26.7949 12.0629 26.4918C11.749 26.1888 11.3233 26.0185 10.8794 26.0185C10.4355 26.0185 10.0098 26.1888 9.69589 26.4918C9.382 26.7949 9.20566 27.206 9.20566 27.6346V31.6747H7.5319C7.21666 31.6748 6.90787 31.761 6.64111 31.9232C6.37434 32.0854 6.16044 32.317 6.02402 32.5914C5.8876 32.8658 5.83422 33.1718 5.87002 33.4742C5.90582 33.7766 6.02934 34.0631 6.22637 34.3007L9.57388 38.3408C9.73071 38.5296 9.92945 38.6819 10.1554 38.7866C10.3814 38.8912 10.6288 38.9456 10.8794 38.9456C11.13 38.9456 11.3775 38.8912 11.6034 38.7866C11.8294 38.6819 12.0281 38.5296 12.1849 38.3408L15.5324 34.3007C15.7295 34.0631 15.853 33.7766 15.8888 33.4742C15.9246 33.1718 15.8712 32.8658 15.7348 32.5914C15.5984 32.317 15.3845 32.0854 15.1177 31.9232C14.8509 31.761 14.5422 31.6748 14.2269 31.6747ZM62.7658 9.65613H61.092V5.61604C61.092 5.18744 60.9157 4.77639 60.6018 4.47333C60.2879 4.17026 59.8622 4 59.4183 4C58.9744 4 58.5486 4.17026 58.2348 4.47333C57.9209 4.77639 57.7445 5.18744 57.7445 5.61604V9.65613H56.0708C55.7555 9.65632 55.4468 9.74247 55.18 9.90465C54.9132 10.0668 54.6993 10.2985 54.5629 10.5729C54.4265 10.8473 54.3731 11.1533 54.4089 11.4557C54.4447 11.7581 54.5682 12.0446 54.7652 12.2822L58.1128 16.3223C58.2696 16.511 58.4683 16.6634 58.6943 16.768C58.9202 16.8727 59.1677 16.927 59.4183 16.927C59.6689 16.927 59.9163 16.8727 60.1423 16.768C60.3682 16.6634 60.567 16.511 60.7238 16.3223L64.0713 12.2822C64.2683 12.0446 64.3919 11.7581 64.4277 11.4557C64.4635 11.1533 64.4101 10.8473 64.2737 10.5729C64.1373 10.2985 63.9233 10.0668 63.6566 9.90465C63.3898 9.74247 63.081 9.65632 62.7658 9.65613Z" fill="#7AD6FF"/>
<path d="M37.6595 44.4007C47.3656 44.4007 55.2339 36.8037 55.2339 27.4323C55.2339 18.0609 47.3656 10.4639 37.6595 10.4639C27.9534 10.4639 20.0851 18.0609 20.0851 27.4323C20.0851 36.8037 27.9534 44.4007 37.6595 44.4007Z" fill="#FF860A"/>
<path d="M40.2086 26.6627H39.1505V22.4303H41.2667C41.9016 22.4303 42.3248 22.8535 42.3248 23.4884C42.3248 24.1232 42.7481 24.5465 43.3829 24.5465C44.0178 24.5465 44.4411 24.1232 44.4411 23.4884C44.4411 21.6896 43.0655 20.314 41.2667 20.314H39.1505V18.1978C39.1505 17.5629 38.7272 17.1396 38.0923 17.1396C37.4575 17.1396 37.0342 17.5629 37.0342 18.1978V20.314H35.9761C33.6482 20.314 31.7436 22.2186 31.7436 24.5465C31.7436 26.8744 33.6482 28.779 35.9761 28.779H37.0342V33.0115H34.918C34.2831 33.0115 33.8599 32.5882 33.8599 31.9533C33.8599 31.3185 33.4366 30.8952 32.8017 30.8952C32.1669 30.8952 31.7436 31.3185 31.7436 31.9533C31.7436 33.7521 33.1192 35.1277 34.918 35.1277H37.0342V37.2439C37.0342 37.8788 37.4575 38.3021 38.0923 38.3021C38.7272 38.3021 39.1505 37.8788 39.1505 37.2439V35.1277H40.2086C42.5364 35.1277 44.4411 33.2231 44.4411 30.8952C44.4411 28.5673 42.5364 26.6627 40.2086 26.6627ZM37.0342 26.6627H35.9761C34.8122 26.6627 33.8599 25.7104 33.8599 24.5465C33.8599 23.3826 34.8122 22.4303 35.9761 22.4303H37.0342V26.6627ZM40.2086 33.0115H39.1505V28.779H40.2086C41.3725 28.779 42.3248 29.7313 42.3248 30.8952C42.3248 32.0591 41.3725 33.0115 40.2086 33.0115Z" fill="white"/>
</svg>
