<svg width="172" height="61" viewBox="0 0 172 61" fill="none" xmlns="http://www.w3.org/2000/svg">
<path d="M81.9829 10.7689C83.1296 11.0145 84.0506 11.5907 84.7461 12.4976C85.4416 13.3855 85.7893 14.4057 85.7893 15.5582C85.7893 17.2207 85.2066 18.5432 84.0412 19.5257C82.8946 20.4892 81.2875 20.971 79.2198 20.971H70V1.07689H78.9097C80.9209 1.07689 82.4905 1.53976 83.6183 2.4655C84.7649 3.39125 85.3382 4.64762 85.3382 6.23461C85.3382 7.40596 85.028 8.37894 84.4077 9.15354C83.8062 9.92814 82.998 10.4666 81.9829 10.7689ZM74.8214 9.1252H77.9792C78.7687 9.1252 79.3702 8.95516 79.7837 8.61509C80.2161 8.25613 80.4322 7.73658 80.4322 7.05644C80.4322 6.3763 80.2161 5.85675 79.7837 5.49779C79.3702 5.13883 78.7687 4.95935 77.9792 4.95935H74.8214V9.1252ZM78.374 17.0602C79.1822 17.0602 79.8025 16.8807 80.2348 16.5217C80.686 16.1439 80.9115 15.6054 80.9115 14.9064C80.9115 14.2073 80.6766 13.6595 80.2067 13.2627C79.7555 12.866 79.1258 12.6676 78.3176 12.6676H74.8214V17.0602H78.374Z" fill="#0EA5E9"/>
<path d="M104.121 5.15772V20.971H99.2998V18.8172C98.8111 19.5162 98.1438 20.083 97.298 20.5175C96.4709 20.9332 95.5499 21.141 94.5349 21.141C93.3319 21.141 92.2699 20.8765 91.3488 20.3475C90.4278 19.7996 89.7135 19.0156 89.206 17.9953C88.6985 16.9751 88.4447 15.7754 88.4447 14.3963V5.15772H93.2379V13.7445C93.2379 14.8025 93.5104 15.6243 94.0555 16.21C94.6007 16.7957 95.3337 17.0885 96.2548 17.0885C97.1946 17.0885 97.9371 16.7957 98.4822 16.21C99.0273 15.6243 99.2998 14.8025 99.2998 13.7445V5.15772H104.121Z" fill="#0EA5E9"/>
<path d="M106.626 13.036C106.626 11.4112 106.926 9.98482 107.528 8.75679C108.148 7.52876 108.985 6.58412 110.037 5.92288C111.09 5.26163 112.265 4.93101 113.562 4.93101C114.596 4.93101 115.535 5.14827 116.381 5.58281C117.246 6.01734 117.923 6.60302 118.411 7.33983V0H123.233V20.971H118.411V18.7038C117.96 19.4595 117.312 20.0641 116.466 20.5175C115.639 20.971 114.671 21.1977 113.562 21.1977C112.265 21.1977 111.09 20.867 110.037 20.2058C108.985 19.5257 108.148 18.5716 107.528 17.3435C106.926 16.0966 106.626 14.6608 106.626 13.036ZM118.411 13.0643C118.411 11.8552 118.073 10.9011 117.396 10.2021C116.738 9.50305 115.93 9.15354 114.972 9.15354C114.013 9.15354 113.195 9.50305 112.519 10.2021C111.861 10.8822 111.532 11.8269 111.532 13.036C111.532 14.2451 111.861 15.2087 112.519 15.9266C113.195 16.6256 114.013 16.9751 114.972 16.9751C115.93 16.9751 116.738 16.6256 117.396 15.9266C118.073 15.2276 118.411 14.2735 118.411 13.0643Z" fill="#0EA5E9"/>
<path d="M132.698 4.93101C133.807 4.93101 134.775 5.15772 135.602 5.61115C136.448 6.06457 137.097 6.65969 137.548 7.39651V5.15772H142.369V20.9426C142.369 22.3974 142.078 23.7104 141.495 24.8818C140.931 26.072 140.057 27.0166 138.873 27.7157C137.707 28.4147 136.251 28.7642 134.503 28.7642C132.172 28.7642 130.283 28.2069 128.835 27.0922C127.388 25.9964 126.561 24.5039 126.354 22.6146H131.119C131.27 23.2192 131.627 23.6915 132.191 24.0316C132.755 24.3905 133.45 24.57 134.277 24.57C135.273 24.57 136.063 24.2772 136.645 23.6915C137.247 23.1247 137.548 22.2084 137.548 20.9426V18.7038C137.078 19.4406 136.429 20.0452 135.602 20.5175C134.775 20.971 133.807 21.1977 132.698 21.1977C131.401 21.1977 130.226 20.867 129.174 20.2058C128.121 19.5257 127.285 18.5716 126.664 17.3435C126.063 16.0966 125.762 14.6608 125.762 13.036C125.762 11.4112 126.063 9.98482 126.664 8.75679C127.285 7.52876 128.121 6.58412 129.174 5.92288C130.226 5.26163 131.401 4.93101 132.698 4.93101ZM137.548 13.0643C137.548 11.8552 137.209 10.9011 136.533 10.2021C135.875 9.50305 135.067 9.15354 134.108 9.15354C133.149 9.15354 132.332 9.50305 131.655 10.2021C130.997 10.8822 130.668 11.8269 130.668 13.036C130.668 14.2451 130.997 15.2087 131.655 15.9266C132.332 16.6256 133.149 16.9751 134.108 16.9751C135.067 16.9751 135.875 16.6256 136.533 15.9266C137.209 15.2276 137.548 14.2735 137.548 13.0643Z" fill="#0EA5E9"/>
<path d="M160.688 12.8093C160.688 13.2627 160.66 13.735 160.603 14.2262H149.692C149.767 15.2087 150.077 15.9644 150.622 16.4934C151.186 17.0035 151.872 17.2585 152.68 17.2585C153.883 17.2585 154.72 16.7484 155.19 15.7282H160.321C160.058 16.7673 159.579 17.7025 158.883 18.5338C158.207 19.3651 157.351 20.0169 156.318 20.4892C155.284 20.9615 154.128 21.1977 152.85 21.1977C151.308 21.1977 149.936 20.867 148.733 20.2058C147.53 19.5446 146.59 18.5999 145.914 17.3719C145.237 16.1439 144.898 14.708 144.898 13.0643C144.898 11.4207 145.227 9.98482 145.885 8.75679C146.562 7.52876 147.502 6.58412 148.705 5.92288C149.908 5.26163 151.289 4.93101 152.85 4.93101C154.372 4.93101 155.725 5.25218 156.91 5.89454C158.094 6.53689 159.015 7.45319 159.673 8.64343C160.349 9.83368 160.688 11.2223 160.688 12.8093ZM155.754 11.534C155.754 10.7027 155.472 10.0415 154.908 9.55029C154.344 9.05907 153.639 8.81347 152.793 8.81347C151.985 8.81347 151.299 9.04963 150.735 9.52195C150.19 9.99427 149.851 10.665 149.72 11.534H155.754Z" fill="#0EA5E9"/>
<path d="M172 16.8618V20.971H169.547C167.799 20.971 166.436 20.5459 165.459 19.6957C164.481 18.8266 163.993 17.4191 163.993 15.4732V9.18188H162.075V5.15772H163.993V1.3036H168.814V5.15772H171.972V9.18188H168.814V15.5298C168.814 16.0022 168.927 16.3422 169.152 16.5501C169.378 16.7579 169.754 16.8618 170.28 16.8618H172Z" fill="#0EA5E9"/>
<path d="M81.9829 43.288C83.1296 43.5337 84.0506 44.1099 84.7461 45.0167C85.4416 45.9047 85.7893 46.9249 85.7893 48.0774C85.7893 49.7399 85.2066 51.0624 84.0412 52.0448C82.8946 53.0084 81.2875 53.4901 79.2198 53.4901H70V33.5961H78.9097C80.9209 33.5961 82.4905 34.0589 83.6183 34.9847C84.7649 35.9104 85.3382 37.1668 85.3382 38.7538C85.3382 39.9251 85.028 40.8981 84.4077 41.6727C83.8062 42.4473 82.998 42.9858 81.9829 43.288ZM74.8214 41.6444H77.9792C78.7687 41.6444 79.3702 41.4743 79.7837 41.1343C80.2161 40.7753 80.4322 40.2558 80.4322 39.5756C80.4322 38.8955 80.2161 38.3759 79.7837 38.017C79.3702 37.658 78.7687 37.4785 77.9792 37.4785H74.8214V41.6444ZM78.374 49.5793C79.1822 49.5793 79.8025 49.3999 80.2348 49.0409C80.686 48.663 80.9115 48.1246 80.9115 47.4256C80.9115 46.7265 80.6766 46.1786 80.2067 45.7819C79.7555 45.3851 79.1258 45.1868 78.3176 45.1868H74.8214V49.5793H78.374Z" fill="#F59E0B"/>
<path d="M104.121 37.6769V53.4901H99.2998V51.3364C98.8111 52.0354 98.1438 52.6022 97.298 53.0367C96.4709 53.4523 95.5499 53.6602 94.5349 53.6602C93.3319 53.6602 92.2699 53.3957 91.3488 52.8667C90.4278 52.3188 89.7135 51.5347 89.206 50.5145C88.6985 49.4943 88.4447 48.2946 88.4447 46.9155V37.6769H93.2379V46.2637C93.2379 47.3217 93.5104 48.1435 94.0555 48.7292C94.6007 49.3148 95.3337 49.6077 96.2548 49.6077C97.1946 49.6077 97.9371 49.3148 98.4822 48.7292C99.0273 48.1435 99.2998 47.3217 99.2998 46.2637V37.6769H104.121Z" fill="#F59E0B"/>
<path d="M106.626 45.5552C106.626 43.9304 106.926 42.504 107.528 41.276C108.148 40.0479 108.985 39.1033 110.037 38.4421C111.09 37.7808 112.265 37.4502 113.562 37.4502C114.596 37.4502 115.535 37.6675 116.381 38.102C117.246 38.5365 117.923 39.1222 118.411 39.859V32.5192H123.233V53.4901H118.411V51.223C117.96 51.9787 117.312 52.5833 116.466 53.0367C115.639 53.4901 114.671 53.7168 113.562 53.7168C112.265 53.7168 111.09 53.3862 110.037 52.725C108.985 52.0448 108.148 51.0908 107.528 49.8627C106.926 48.6158 106.626 47.18 106.626 45.5552ZM118.411 45.5835C118.411 44.3744 118.073 43.4203 117.396 42.7213C116.738 42.0222 115.93 41.6727 114.972 41.6727C114.013 41.6727 113.195 42.0222 112.519 42.7213C111.861 43.4014 111.532 44.346 111.532 45.5552C111.532 46.7643 111.861 47.7278 112.519 48.4458C113.195 49.1448 114.013 49.4943 114.972 49.4943C115.93 49.4943 116.738 49.1448 117.396 48.4458C118.073 47.7467 118.411 46.7927 118.411 45.5835Z" fill="#F59E0B"/>
<path d="M125.762 45.5552C125.762 43.9304 126.063 42.504 126.664 41.276C127.285 40.0479 128.121 39.1033 129.174 38.4421C130.226 37.7808 131.401 37.4502 132.698 37.4502C133.732 37.4502 134.672 37.6675 135.518 38.102C136.382 38.5365 137.059 39.1222 137.548 39.859V32.5192H142.369V53.4901H137.548V51.223C137.097 51.9787 136.448 52.5833 135.602 53.0367C134.775 53.4901 133.807 53.7168 132.698 53.7168C131.401 53.7168 130.226 53.3862 129.174 52.725C128.121 52.0448 127.285 51.0908 126.664 49.8627C126.063 48.6158 125.762 47.18 125.762 45.5552ZM137.548 45.5835C137.548 44.3744 137.209 43.4203 136.533 42.7213C135.875 42.0222 135.067 41.6727 134.108 41.6727C133.149 41.6727 132.332 42.0222 131.655 42.7213C130.997 43.4014 130.668 44.346 130.668 45.5552C130.668 46.7643 130.997 47.7278 131.655 48.4458C132.332 49.1448 133.149 49.4943 134.108 49.4943C135.067 49.4943 135.875 49.1448 136.533 48.4458C137.209 47.7467 137.548 46.7927 137.548 45.5835Z" fill="#F59E0B"/>
<path d="M161.928 37.6769L156.994 49.3384L152.06 61H146.872L150.481 52.9517L144.081 37.6769H149.466L153.103 47.5673L156.712 37.6769H161.928Z" fill="#F59E0B"/>
<path d="M29.5 59C45.7924 59 59 46.2401 59 30.5C59 14.7599 45.7924 2 29.5 2C13.2076 2 0 14.7599 0 30.5C0 46.2401 13.2076 59 29.5 59Z" fill="#0EA5E9"/>
<path d="M55.8128 36.0588C55.9829 36.0569 56.1515 36.0912 56.3068 36.1593C56.462 36.2274 56.6003 36.3277 56.7119 36.4531C56.8236 36.5786 56.906 36.7263 56.9535 36.886C57.0009 37.0457 57.0122 37.2135 56.9867 37.3779C56.3997 41.1919 55.5604 46.6347 55.578 46.5544C55.5355 46.8279 55.3934 47.0772 55.1776 47.2564C54.9619 47.4356 54.6872 47.5325 54.4041 47.5294H51.7686C48.0179 54.1193 39.0432 58.805 28.4955 59C22.8465 58.9057 17.3453 57.2201 12.6527 54.1456C7.96004 51.0712 4.27536 46.7385 2.04109 41.6679C2 41.3296 2 40.9912 2 40.6471C2 27.9147 20.1137 18.7153 37.4056 23.6018C38.1547 22.4945 39.1729 21.586 40.3694 20.9574C41.5658 20.3289 42.903 19.9999 44.2613 20C44.5727 20 44.8713 20.1208 45.0914 20.336C45.3116 20.5511 45.4353 20.8428 45.4353 21.1471V27.2265C48.9571 29.5722 51.5866 32.6176 52.831 36.0588H55.8128Z" fill="#FFA84E"/>
<path d="M36.6033 29.4H16.2002C15.8819 29.4 15.5766 29.2736 15.3515 29.0485C15.1264 28.8235 15 28.5183 15 28.2C15 27.8817 15.1264 27.5765 15.3515 27.3515C15.5766 27.1264 15.8819 27 16.2002 27H36.6033C36.9216 27 37.2269 27.1264 37.452 27.3515C37.677 27.5765 37.8035 27.8817 37.8035 28.2C37.8035 28.5183 37.677 28.8235 37.452 29.0485C37.2269 29.2736 36.9216 29.4 36.6033 29.4ZM46.8049 36C46.4871 35.9987 46.1828 35.8714 45.9587 35.646C45.7048 35.3946 45.3619 35.2536 45.0046 35.2536C44.6473 35.2536 44.3044 35.3946 44.0504 35.646C43.8208 35.8426 43.5255 35.9453 43.2234 35.9337C42.9214 35.922 42.6349 35.7968 42.4211 35.5831C42.2074 35.3694 42.0821 35.0829 42.0705 34.7809C42.0588 34.4789 42.1616 34.1836 42.3582 33.954C42.7054 33.606 43.1179 33.33 43.572 33.1416C44.0261 32.9533 44.513 32.8563 45.0046 32.8563C45.4962 32.8563 45.983 32.9533 46.4371 33.1416C46.8912 33.33 47.3037 33.606 47.651 33.954C47.8178 34.1218 47.9313 34.3352 47.9772 34.5673C48.0231 34.7994 47.9994 35.0399 47.9089 35.2585C47.8185 35.4772 47.6654 35.6642 47.469 35.7962C47.2726 35.9281 47.0415 35.999 46.8049 36Z" fill="#D48432"/>
<path d="M9.85662 20.0065H8.68515V17.2318C8.68515 16.9374 8.56173 16.6551 8.34203 16.447C8.12234 16.2389 7.82437 16.1219 7.51368 16.1219C7.20299 16.1219 6.90502 16.2389 6.68533 16.447C6.46563 16.6551 6.34221 16.9374 6.34221 17.2318V20.0065H5.17074C4.9501 20.0066 4.73398 20.0658 4.54727 20.1771C4.36056 20.2885 4.21084 20.4476 4.11536 20.6361C4.01988 20.8245 3.98252 21.0347 4.00758 21.2424C4.03264 21.4501 4.11909 21.6468 4.25699 21.81L6.59993 24.5847C6.7097 24.7143 6.8488 24.8189 7.00695 24.8908C7.1651 24.9627 7.33827 25 7.51368 25C7.68909 25 7.86226 24.9627 8.02041 24.8908C8.17857 24.8189 8.31766 24.7143 8.42743 24.5847L10.7704 21.81C10.9083 21.6468 10.9947 21.4501 11.0198 21.2424C11.0448 21.0347 11.0075 20.8245 10.912 20.6361C10.8165 20.4476 10.6668 20.2885 10.4801 20.1771C10.2934 20.0658 10.0773 20.0066 9.85662 20.0065ZM43.8293 4.88453H42.6578V2.10987C42.6578 1.81551 42.5344 1.53321 42.3147 1.32507C42.095 1.11693 41.797 1 41.4863 1C41.1756 1 40.8777 1.11693 40.658 1.32507C40.4383 1.53321 40.3149 1.81551 40.3149 2.10987V4.88453H39.1434C38.9227 4.88466 38.7066 4.94383 38.5199 5.05521C38.3332 5.1666 38.1835 5.32567 38.088 5.51413C37.9925 5.70258 37.9552 5.91275 37.9802 6.12044C38.0053 6.32812 38.0917 6.52488 38.2296 6.68807L40.5726 9.46273C40.6823 9.59236 40.8214 9.69698 40.9796 9.76886C41.1377 9.84075 41.3109 9.87807 41.4863 9.87807C41.6617 9.87807 41.8349 9.84075 41.9931 9.76886C42.1512 9.69698 42.2903 9.59236 42.4001 9.46273L44.743 6.68807C44.8809 6.52488 44.9674 6.32812 44.9924 6.12044C45.0175 5.91275 44.9801 5.70258 44.8846 5.51413C44.7892 5.32567 44.6394 5.1666 44.4527 5.05521C44.266 4.94383 44.0499 4.88466 43.8293 4.88453Z" fill="#7AD6FF"/>
<path d="M26.5 29C33.4036 29 39 23.6274 39 17C39 10.3726 33.4036 5 26.5 5C19.5964 5 14 10.3726 14 17C14 23.6274 19.5964 29 26.5 29Z" fill="#FF860A"/>
<path d="M28 16.75H27.25V13.75H28.75C29.2 13.75 29.5 14.05 29.5 14.5C29.5 14.95 29.8 15.25 30.25 15.25C30.7 15.25 31 14.95 31 14.5C31 13.225 30.025 12.25 28.75 12.25H27.25V10.75C27.25 10.3 26.95 10 26.5 10C26.05 10 25.75 10.3 25.75 10.75V12.25H25C23.35 12.25 22 13.6 22 15.25C22 16.9 23.35 18.25 25 18.25H25.75V21.25H24.25C23.8 21.25 23.5 20.95 23.5 20.5C23.5 20.05 23.2 19.75 22.75 19.75C22.3 19.75 22 20.05 22 20.5C22 21.775 22.975 22.75 24.25 22.75H25.75V24.25C25.75 24.7 26.05 25 26.5 25C26.95 25 27.25 24.7 27.25 24.25V22.75H28C29.65 22.75 31 21.4 31 19.75C31 18.1 29.65 16.75 28 16.75ZM25.75 16.75H25C24.175 16.75 23.5 16.075 23.5 15.25C23.5 14.425 24.175 13.75 25 13.75H25.75V16.75ZM28 21.25H27.25V18.25H28C28.825 18.25 29.5 18.925 29.5 19.75C29.5 20.575 28.825 21.25 28 21.25Z" fill="white"/>
</svg>
