<svg width="26" height="26" viewBox="0 0 26 26" fill="none" xmlns="http://www.w3.org/2000/svg">
<path d="M3.25 3.25H11.9167V11.9167H3.25V3.25ZM4.98333 4.98333V10.1833H10.1833V4.98333H4.98333Z" fill="white"/>
<path fill-rule="evenodd" clip-rule="evenodd" d="M6.5 6.5H8.66667V8.66667H6.5V6.5Z" fill="white"/>
<path d="M14.0833 3.25H22.7499V11.9167H14.0833V3.25ZM15.8166 4.98333V10.1833H21.0166V4.98333H15.8166Z" fill="white"/>
<path fill-rule="evenodd" clip-rule="evenodd" d="M17.3333 6.5H19.4999V8.66667H17.3333V6.5Z" fill="white"/>
<path d="M3.25 14.0835H11.9167V22.7502H3.25V14.0835ZM4.98333 15.8168V21.0168H10.1833V15.8168H4.98333Z" fill="white"/>
<path fill-rule="evenodd" clip-rule="evenodd" d="M6.5 17.3335H8.66667V19.5002H6.5V17.3335Z" fill="white"/>
<path d="M22.7499 19.2835H19.2833V22.7502H14.0833V14.0835H14.9499H14.0833V19.2835H15.8166V21.0168H17.5499V15.8168H15.8166V14.0835H14.9499H17.5499V15.8168H19.2833V17.5502H21.0166V14.0835H22.7499V19.2835ZM22.7499 21.0168V22.7502H21.0166V21.0168H22.7499Z" fill="white"/>
</svg>
