<svg width="27" height="26" viewBox="0 0 27 26" fill="none" xmlns="http://www.w3.org/2000/svg">
<path d="M9.77758 10.9308L8.25008 12.4583L13.6667 17.875L19.0834 12.4583L17.5559 10.9308L14.7501 13.7258L14.7501 3.25L12.5834 3.25L12.5834 13.7258L9.77758 10.9308ZM23.4167 20.5833L23.4167 5.41667C23.4167 4.84203 23.1885 4.29093 22.7821 3.8846C22.3758 3.47827 21.8247 3.25 21.2501 3.25L16.9167 3.25L16.9167 5.41667L21.2501 5.41667L21.2501 20.5833L6.08341 20.5833L6.08341 5.41667L10.4167 5.41667L10.4167 3.25L6.08341 3.25C5.50878 3.25 4.95768 3.47827 4.55135 3.8846C4.14502 4.29093 3.91675 4.84203 3.91675 5.41667L3.91675 20.5833C3.91675 21.775 4.89175 22.75 6.08341 22.75L21.2501 22.75C22.4417 22.75 23.4167 21.775 23.4167 20.5833Z" fill="white"/>
</svg>
